<svg width="24" height="24" viewBox="0 0 24 24" fill="none" xmlns="http://www.w3.org/2000/svg">
<path opacity="0.4" d="M19 9C19 10.45 18.57 11.78 17.83 12.89C17.2877 13.6987 16.5824 14.3852 15.7592 14.9053C14.936 15.4254 14.0132 15.7676 13.05 15.91C12.71 15.97 12.36 16 12 16C11.64 16 11.29 15.97 10.95 15.91C9.98675 15.7676 9.06393 15.4254 8.24075 14.9053C7.41758 14.3852 6.71223 13.6987 6.16998 12.89C5.40229 11.7383 4.99498 10.3841 4.99998 9C4.99998 5.13 8.12998 2 12 2C15.87 2 19 5.13 19 9Z" fill="#3E3B6A"/>
<path d="M21.25 18.468L19.6 18.858C19.23 18.948 18.94 19.228 18.86 19.598L18.51 21.068C18.467 21.2484 18.3748 21.4134 18.2435 21.5444C18.1122 21.6754 17.947 21.7673 17.7665 21.8099C17.5859 21.8524 17.3971 21.8439 17.2211 21.7853C17.0452 21.7267 16.889 21.6203 16.77 21.478L12 15.998L7.22998 21.488C7.111 21.6303 6.95478 21.7367 6.7788 21.7953C6.60282 21.8539 6.41401 21.8624 6.23347 21.8199C6.05293 21.7773 5.88778 21.6854 5.75648 21.5544C5.62518 21.4234 5.53291 21.2584 5.48998 21.078L5.13998 19.608C5.09743 19.4281 5.00569 19.2637 4.875 19.133C4.74431 19.0023 4.57984 18.9105 4.39998 18.868L2.74998 18.478C2.5771 18.4366 2.41835 18.3499 2.28997 18.227C2.16159 18.104 2.0682 17.9491 2.01937 17.7782C1.97053 17.6072 1.968 17.4264 2.01203 17.2542C2.05607 17.0819 2.14509 16.9245 2.26998 16.798L6.16998 12.898C6.71227 13.7067 7.41763 14.3931 8.2408 14.9132C9.06397 15.4333 9.98676 15.7755 10.95 15.918C11.29 15.978 11.64 16.008 12 16.008C12.36 16.008 12.71 15.978 13.05 15.918C15.04 15.628 16.75 14.498 17.83 12.898L21.73 16.798C22.28 17.338 22.01 18.288 21.25 18.468ZM12.58 5.98L13.17 7.16C13.25 7.32 13.46 7.48 13.65 7.51L14.72 7.69C15.4 7.8 15.56 8.3 15.07 8.79L14.24 9.62C14.1 9.76 14.02 10.03 14.07 10.23L14.31 11.26C14.5 12.07 14.07 12.39 13.35 11.96L12.35 11.37C12.2484 11.3158 12.1351 11.2875 12.02 11.2875C11.9049 11.2875 11.7915 11.3158 11.69 11.37L10.69 11.96C9.96998 12.38 9.53998 12.07 9.72998 11.26L9.96998 10.23C10.01 10.04 9.93998 9.76 9.79998 9.62L8.96998 8.79C8.47998 8.3 8.63998 7.81 9.31998 7.69L10.39 7.51C10.57 7.48 10.78 7.32 10.86 7.16L11.45 5.98C11.74 5.34 12.26 5.34 12.58 5.98Z" fill="#3E3B6A"/>
</svg>
