<svg width="24" height="24" viewBox="0 0 24 24" fill="none" xmlns="http://www.w3.org/2000/svg">
<path opacity="0.4" d="M21.0899 21.5C21.0899 21.78 20.8699 22 20.5899 22H3.40991C3.12991 22 2.90991 21.78 2.90991 21.5C2.90991 17.36 6.98991 14 11.9999 14C13.0299 14 14.0299 14.14 14.9499 14.41C14.3599 15.11 13.9999 16.02 13.9999 17C13.9999 17.75 14.2099 18.46 14.5799 19.06C14.7799 19.4 15.0399 19.71 15.3399 19.97C16.0399 20.61 16.9699 21 17.9999 21C19.1199 21 20.1299 20.54 20.8499 19.8C21.0099 20.34 21.0899 20.91 21.0899 21.5Z" fill="#3E3B6A"/>
<path d="M20.97 14.33C20.5981 13.9098 20.1407 13.5738 19.6286 13.3444C19.1164 13.115 18.5612 12.9976 18 13C17.4745 12.9993 16.9541 13.1024 16.4685 13.3031C15.9829 13.5039 15.5417 13.7985 15.1701 14.1701C14.7985 14.5417 14.5039 14.9829 14.3031 15.4685C14.1024 15.9541 13.9993 16.4745 14 17C14 17.75 14.21 18.46 14.58 19.06C14.78 19.4 15.04 19.71 15.34 19.97C16.04 20.61 16.97 21 18 21C19.46 21 20.73 20.22 21.42 19.06C21.63 18.72 21.79 18.33 21.88 17.93C21.96 17.63 22 17.32 22 17C22 15.98 21.61 15.04 20.97 14.33ZM19.5 17.73H18.75V18.51C18.75 18.92 18.41 19.26 18 19.26C17.59 19.26 17.25 18.92 17.25 18.51V17.73H16.5C16.09 17.73 15.75 17.39 15.75 16.98C15.75 16.57 16.09 16.23 16.5 16.23H17.25V15.52C17.25 15.11 17.59 14.77 18 14.77C18.41 14.77 18.75 15.11 18.75 15.52V16.23H19.5C19.91 16.23 20.25 16.57 20.25 16.98C20.25 17.39 19.91 17.73 19.5 17.73ZM12 12C13.3261 12 14.5979 11.4732 15.5355 10.5355C16.4732 9.59785 17 8.32608 17 7C17 5.67392 16.4732 4.40215 15.5355 3.46447C14.5979 2.52678 13.3261 2 12 2C10.6739 2 9.40215 2.52678 8.46447 3.46447C7.52678 4.40215 7 5.67392 7 7C7 8.32608 7.52678 9.59785 8.46447 10.5355C9.40215 11.4732 10.6739 12 12 12Z" fill="#3E3B6A"/>
</svg>
