<svg width="7" height="7" viewBox="0 0 7 7" fill="none" xmlns="http://www.w3.org/2000/svg">
<g clip-path="url(#clip0_1344_2373)">
<path d="M3.50033 6.41669C5.10741 6.41669 6.41699 5.1071 6.41699 3.50002C6.41699 1.89294 5.10741 0.583353 3.50033 0.583353C1.89324 0.583353 0.583659 1.89294 0.583658 3.50002C0.583658 5.1071 1.89324 6.41669 3.50033 6.41669ZM2.97824 2.62502C2.89366 2.54044 2.89366 2.40044 2.97824 2.31585C3.02199 2.2721 3.07741 2.25169 3.13283 2.25169C3.18824 2.25169 3.24366 2.2721 3.28741 2.31585L4.31699 3.34544C4.35767 3.3866 4.38049 3.44214 4.38049 3.50002C4.38049 3.5579 4.35767 3.61344 4.31699 3.6546L3.28741 4.68419C3.20283 4.76877 3.06283 4.76877 2.97824 4.68419C2.89366 4.5996 2.89366 4.4596 2.97824 4.37502L3.85324 3.50002L2.97824 2.62502Z" fill="#3E3B6A"/>
</g>
<defs>
<clipPath id="clip0_1344_2373">
<rect width="7" height="7" fill="white" transform="translate(7 7) rotate(-180)"/>
</clipPath>
</defs>
</svg>
