<svg width="7" height="7" viewBox="0 0 7 7" fill="none" xmlns="http://www.w3.org/2000/svg">
<g clip-path="url(#clip0_1344_2369)">
<path d="M3.49967 0.583313C1.89259 0.583313 0.583008 1.8929 0.583008 3.49998C0.583008 5.10706 1.89259 6.41665 3.49967 6.41665C5.10676 6.41665 6.41634 5.10706 6.41634 3.49998C6.41634 1.8929 5.10676 0.583313 3.49967 0.583313ZM4.02176 4.37498C4.10634 4.45956 4.10634 4.59956 4.02176 4.68415C3.97801 4.7279 3.92259 4.74831 3.86717 4.74831C3.81176 4.74831 3.75634 4.7279 3.71259 4.68415L2.68301 3.65456C2.64233 3.6134 2.61951 3.55786 2.61951 3.49998C2.61951 3.4421 2.64233 3.38656 2.68301 3.3454L3.71259 2.31581C3.79717 2.23123 3.93717 2.23123 4.02176 2.31581C4.10634 2.4004 4.10634 2.5404 4.02176 2.62498L3.14676 3.49998L4.02176 4.37498Z" fill="#3E3B6A"/>
</g>
<defs>
<clipPath id="clip0_1344_2369">
<rect width="7" height="7" fill="white"/>
</clipPath>
</defs>
</svg>
