<svg width="18" height="18" viewBox="0 0 18 18" fill="none" xmlns="http://www.w3.org/2000/svg">
<g clip-path="url(#clip0_2009_2452)">
<mask id="mask0_2009_2452" style="mask-type:luminance" maskUnits="userSpaceOnUse" x="0" y="0" width="18" height="18">
<path d="M18 0H0V18H18V0Z" fill="white"/>
</mask>
<g mask="url(#mask0_2009_2452)">
<g opacity="0.4">
<path d="M11.175 1.5H6.825C6.315 1.5 5.595 1.8 5.235 2.16L2.16 5.235C1.8 5.595 1.5 6.315 1.5 6.825V11.175C1.5 11.685 1.8 12.405 2.16 12.765L5.235 15.84C5.595 16.2 6.315 16.5 6.825 16.5H11.175C11.685 16.5 12.405 16.2 12.765 15.84L15.84 12.765C16.2 12.405 16.5 11.685 16.5 11.175V6.825C16.5 6.315 16.2 5.595 15.84 5.235L12.765 2.16C12.405 1.8 11.685 1.5 11.175 1.5Z" fill="white"/>
</g>
<path d="M2.26488 16.3125C2.12238 16.3125 1.97988 16.26 1.86738 16.1475C1.76277 16.0416 1.7041 15.8988 1.7041 15.75C1.7041 15.6011 1.76277 15.4583 1.86738 15.3525L15.3524 1.86747C15.5699 1.64997 15.9299 1.64997 16.1474 1.86747C16.3649 2.08497 16.3649 2.44497 16.1474 2.66247L2.66238 16.1475C2.61125 16.2011 2.54949 16.2435 2.48104 16.2719C2.41259 16.3003 2.33897 16.3141 2.26488 16.3125Z" fill="white"/>
</g>
</g>
<defs>
<clipPath id="clip0_2009_2452">
<rect width="18" height="18" fill="white"/>
</clipPath>
</defs>
</svg>
