<svg width="18" height="18" viewBox="0 0 18 18" fill="none" xmlns="http://www.w3.org/2000/svg">
<path opacity="0.4" d="M11.175 1.5H6.825C6.315 1.5 5.595 1.8 5.235 2.16L2.16 5.235C1.8 5.595 1.5 6.315 1.5 6.825V11.175C1.5 11.685 1.8 12.405 2.16 12.765L5.235 15.84C5.595 16.2 6.315 16.5 6.825 16.5H11.175C11.685 16.5 12.405 16.2 12.765 15.84L15.84 12.765C16.2 12.405 16.5 11.685 16.5 11.175V6.825C16.5 6.315 16.2 5.595 15.84 5.235L12.765 2.16C12.405 1.8 11.685 1.5 11.175 1.5Z" fill="#3E3B6A"/>
<path d="M2.26488 16.3127C2.12238 16.3127 1.97988 16.2602 1.86738 16.1477C1.76277 16.0419 1.7041 15.899 1.7041 15.7502C1.7041 15.6014 1.76277 15.4586 1.86738 15.3527L15.3524 1.86771C15.5699 1.65021 15.9299 1.65021 16.1474 1.86771C16.3649 2.08521 16.3649 2.44521 16.1474 2.66271L2.66238 16.1477C2.61125 16.2014 2.54949 16.2438 2.48104 16.2722C2.41259 16.3006 2.33897 16.3144 2.26488 16.3127Z" fill="#3E3B6A"/>
<path d="M16.6081 16.0457C16.6081 16.1882 16.5556 16.3307 16.4431 16.4432C16.3373 16.5478 16.1944 16.6064 16.0456 16.6064C15.8968 16.6064 15.754 16.5478 15.6481 16.4432L2.16312 2.95817C1.94563 2.74067 1.94563 2.38067 2.16312 2.16317C2.38062 1.94567 2.74062 1.94567 2.95812 2.16317L16.4431 15.6482C16.4968 15.6993 16.5392 15.7611 16.5676 15.8295C16.596 15.898 16.6098 15.9716 16.6081 16.0457Z" fill="#3E3B6A"/>
</svg>
