<svg width="7" height="7" viewBox="0 0 7 7" fill="none" xmlns="http://www.w3.org/2000/svg">
<g clip-path="url(#clip0_1344_3131)">
<path d="M6.63509 3.49987C6.63509 3.61945 6.53592 3.71862 6.41634 3.71862H5.82134C5.71926 4.82987 4.82967 5.71945 3.71842 5.82154V6.41654C3.71842 6.53612 3.61926 6.63529 3.49967 6.63529C3.38009 6.63529 3.28092 6.53612 3.28092 6.41654V5.82154C3.10301 5.80695 2.92801 5.76904 2.76176 5.71362C2.55467 5.64362 2.49051 5.38112 2.64509 5.22654L3.46467 4.40695C3.47634 4.40987 3.48509 4.40987 3.49676 4.40987C4.00134 4.40987 4.40676 4.00445 4.40676 3.49987C4.40676 3.4882 4.40676 3.47945 4.40384 3.46779L5.22342 2.6482C5.37801 2.49362 5.64051 2.55779 5.71051 2.76487C5.76592 2.93112 5.80384 3.1032 5.81842 3.28404H6.41634C6.53592 3.28112 6.63509 3.38029 6.63509 3.49987ZM6.34926 0.650579C6.26176 0.563079 6.11884 0.563079 6.03134 0.650579L4.97842 1.7035C4.62842 1.41475 4.19092 1.22516 3.71551 1.18141V0.583496C3.71551 0.463913 3.61634 0.364746 3.49676 0.364746C3.37717 0.364746 3.27801 0.463913 3.27801 0.583496V1.1785C2.16676 1.2835 1.27717 2.17016 1.17509 3.28141H0.583008C0.463424 3.28141 0.364258 3.38058 0.364258 3.50016C0.364258 3.61975 0.463424 3.71891 0.583008 3.71891H1.17801C1.22176 4.19433 1.41134 4.63183 1.70009 4.98183L0.647174 6.03475C0.559674 6.12225 0.559674 6.26516 0.647174 6.35266C0.693841 6.3935 0.749258 6.41683 0.807591 6.41683C0.865924 6.41683 0.921341 6.3935 0.965091 6.34975L6.34926 0.965579C6.43967 0.878079 6.43967 0.738079 6.34926 0.650579ZM2.58967 3.50016C2.58967 2.9985 2.99801 2.59016 3.49967 2.59016C3.66884 2.59016 3.82634 2.63975 3.96051 2.72141L2.72092 3.961C2.63926 3.82683 2.58967 3.66933 2.58967 3.50016Z" fill="#3E3B6A"/>
</g>
<defs>
<clipPath id="clip0_1344_3131">
<rect width="7" height="7" fill="white"/>
</clipPath>
</defs>
</svg>
