<svg width="574" height="580" viewBox="0 0 574 580" fill="none" xmlns="http://www.w3.org/2000/svg">
<path fill-rule="evenodd" clip-rule="evenodd" d="M312.787 85.5656C371.201 94.6052 432.182 39.1818 484.7 66.3071C537.962 93.8169 560.487 159.992 571.112 218.99C580.856 273.092 550.914 322.956 540.646 376.961C528.283 441.978 559.965 530.632 504.881 567.319C449.159 604.431 376.29 549.923 312.787 528.718C269.441 514.244 237.664 482.18 195.703 464.078C135.319 438.028 50.0566 455.085 14.2481 399.926C-20.9372 345.727 18.4737 274.858 31.819 211.633C47.0245 139.595 30.1471 36.4998 97.3203 6.35999C168.887 -25.7513 235.269 73.5697 312.787 85.5656Z" fill="#CB2121"/>
</svg>
