<svg width="681" height="569" viewBox="0 0 681 569" fill="none" xmlns="http://www.w3.org/2000/svg">
<path fill-rule="evenodd" clip-rule="evenodd" d="M331.819 8.73707C395.862 -1.35099 462.262 -7.80548 521.276 19.0369C588.61 49.6636 669.06 93.6124 679.442 166.852C689.979 241.194 616.86 298.928 569.169 356.921C537.331 395.637 488.846 411.045 451.309 444.265C407.483 483.052 389.533 557.263 331.819 566.978C274.186 576.68 229.695 519.231 179.029 490.1C120.505 456.451 40.6261 444.95 12.6925 383.492C-15.6278 321.184 7.78339 245.282 40.4083 185.116C69.7735 130.961 128.572 104.493 181.275 72.5946C229.078 43.6616 276.623 17.4317 331.819 8.73707Z" fill="#53BBB5"/>
</svg>
