<svg width="521" height="590" viewBox="0 0 521 590" fill="none" xmlns="http://www.w3.org/2000/svg">
<path fill-rule="evenodd" clip-rule="evenodd" d="M246.057 70.1008C312.593 73.3838 377.045 0.490116 436.824 29.8888C495.767 58.8766 509.479 138.907 518.315 203.995C526.091 261.274 506.962 316.852 482.917 369.418C461.329 416.615 426.327 452.917 388.298 488.235C344.597 528.822 305.585 585.719 246.057 589.396C185.948 593.109 135.365 546.751 90.447 506.636C49.3595 469.941 13.8914 425.517 2.26573 371.67C-8.70305 320.865 23.4223 273.601 28.9773 221.924C36.716 149.931 -18.2322 51.8621 41.1037 10.3633C100.88 -31.4438 173.2 66.5059 246.057 70.1008Z" fill="#A8FFD5"/>
</svg>
