<svg width="24" height="24" viewBox="0 0 24 24" fill="none" xmlns="http://www.w3.org/2000/svg">
<path opacity="0.4" d="M16.19 2H7.81C4.17 2 2 4.17 2 7.81V16.18C2 19.83 4.17 22 7.81 22H16.18C19.82 22 21.99 19.83 21.99 16.19V7.81C22 4.17 19.83 2 16.19 2Z" fill="white"/>
<path d="M13.0604 12L15.3604 9.7C15.6504 9.41 15.6504 8.93 15.3604 8.64C15.2192 8.50052 15.0288 8.4223 14.8304 8.4223C14.6319 8.4223 14.4415 8.50052 14.3004 8.64L12.0004 10.94L9.70035 8.64C9.55921 8.50052 9.36878 8.4223 9.17035 8.4223C8.97192 8.4223 8.78149 8.50052 8.64035 8.64C8.35035 8.93 8.35035 9.41 8.64035 9.7L10.9404 12L8.64035 14.3C8.35035 14.59 8.35035 15.07 8.64035 15.36C8.79035 15.51 8.98035 15.58 9.17035 15.58C9.36035 15.58 9.55035 15.51 9.70035 15.36L12.0004 13.06L14.3004 15.36C14.4504 15.51 14.6404 15.58 14.8304 15.58C15.0204 15.58 15.2104 15.51 15.3604 15.36C15.6504 15.07 15.6504 14.59 15.3604 14.3L13.0604 12Z" fill="white"/>
</svg>
