<svg width="24" height="24" viewBox="0 0 24 24" fill="none" xmlns="http://www.w3.org/2000/svg">
<path opacity="0.4" d="M12 22C17.523 22 22 17.523 22 12C22 6.477 17.523 2 12 2C6.477 2 2 6.477 2 12C2 17.523 6.477 22 12 22Z" fill="#FF0000"/>
<path d="M13.06 12L15.36 9.7C15.65 9.41 15.65 8.93 15.36 8.64C15.2188 8.50052 15.0284 8.4223 14.83 8.4223C14.6316 8.4223 14.4411 8.50052 14.3 8.64L12 10.94L9.69998 8.64C9.55885 8.50052 9.36842 8.4223 9.16999 8.4223C8.97155 8.4223 8.78112 8.50052 8.63999 8.64C8.34999 8.93 8.34999 9.41 8.63999 9.7L10.94 12L8.63999 14.3C8.34999 14.59 8.34999 15.07 8.63999 15.36C8.78999 15.51 8.97999 15.58 9.16999 15.58C9.35999 15.58 9.54998 15.51 9.69998 15.36L12 13.06L14.3 15.36C14.45 15.51 14.64 15.58 14.83 15.58C15.02 15.58 15.21 15.51 15.36 15.36C15.65 15.07 15.65 14.59 15.36 14.3L13.06 12Z" fill="#FF0000"/>
</svg>
