<!DOCTYPE svg PUBLIC "-//W3C//DTD SVG 1.1//EN" "http://www.w3.org/Graphics/SVG/1.1/DTD/svg11.dtd">
<!-- Uploaded to: SVG Repo, www.svgrepo.com, Transformed by: SVG Repo Mixer Tools -->
<svg height="800px" width="800px" version="1.1" id="Layer_1" xmlns="http://www.w3.org/2000/svg" xmlns:xlink="http://www.w3.org/1999/xlink" viewBox="0 0 507.8 507.8" xml:space="preserve" fill="#3E3B6A" stroke="#3E3B6A">
<g id="SVGRepo_bgCarrier" stroke-width="0"/>
<g id="SVGRepo_tracerCarrier" stroke-linecap="round" stroke-linejoin="round"/>
<g id="SVGRepo_iconCarrier"> <path style="fill:$##b2b0c2;" d="M497.3,110.1l-16.8-16.8c-9.2-9.2-24.4-9.2-33.6,0L210.5,329.7L61.7,180.9c-9.2-9.2-24.4-9.2-33.6,0 l-16.8,16.8c-9.2,9.2-9.2,24.4,0,33.6l165.2,165.2c0.4,0.4,0.4,0.4,0.8,0.8l16.8,16.8c4.8,4.8,10.8,6.8,16.8,6.8s12.4-2.4,16.8-6.8 l16.8-16.8c0.4-0.4,0.4-0.4,0.8-0.8l252.8-252.8C506.5,134.5,506.5,119.3,497.3,110.1z"/> <path style="fill:#b2b0c2;" d="M38.9,231.7l-9.2-9.2c-4-4-4-10.8,0-14.8l7.6-7.6c4-4,10.8-4,14.8,0l158.4,158.4l214-214l22.4-22.4 l9.2-9.2c4-4,10.8-4,14.8,0l7.6,7.6c4,4,4,10.8,0,14.8L217.7,396.1c-1.2,1.2-2,1.6-3.6,2.4c-3.6,1.6-8.4,0.8-11.2-2.4L61.7,254.9 L38.9,231.7z"/> <path d="M210.1,424.9L210.1,424.9c-7.6,0-14.4-2.8-19.6-8l-16.8-16.8c-0.4-0.4-0.4-0.4-0.8-0.8L8.1,234.5 c-10.8-10.8-10.8-28.4,0-39.2l16.8-16.8c5.2-5.2,12.4-8,19.6-8c7.6,0,14.4,2.8,19.6,8l146,146L443.7,90.9c5.2-5.2,12.4-8,19.6-8 c7.6,0,14.4,2.8,19.6,8l16.8,16.8c10.8,10.8,10.8,28.4,0,39.2L246.9,399.7c0,0.4-0.4,0.4-0.8,0.8l-16.8,16.8 C224.9,422.1,217.7,424.9,210.1,424.9z M210.1,416.9L210.1,416.9c5.2,0,10.4-2,14-5.6l16.8-16.8c0-0.4,0.4-0.4,0.4-0.8l252.8-252.8 c7.6-7.6,7.6-20.4,0-28l0,0l-16.8-16.8c-3.6-3.6-8.8-5.6-14-5.6s-10.4,2-14,5.6L212.9,332.5c-1.6,1.6-4,1.6-5.6,0L58.5,183.7 c-3.6-3.6-8.8-5.6-14-5.6s-10.4,2-14,5.6l-16.8,16.8c-7.6,7.6-7.6,20.4,0,28l165.2,165.2c0.4,0.4,0.4,0.4,0.8,0.8l16.4,16.8 C199.7,414.9,204.9,416.9,210.1,416.9L210.1,416.9z"/> <path d="M210.1,362.1c-1.2,0-2-0.4-2.8-1.2L48.9,202.5c-2.4-2.4-6.4-2.4-8.8,0l-7.6,7.6c-1.2,1.2-2,2.8-2,4.4s0.8,3.2,2,4.4l9.2,9.2 c1.6,1.6,1.6,4,0,5.6s-4,1.6-5.6,0l-9.2-9.2c-2.8-2.8-4-6.4-4-10s1.6-7.6,4-10l7.6-7.6c5.6-5.6,14.8-5.6,20.4,0l155.6,155.6 l211.2-211.2c1.6-1.6,4-1.6,5.6,0s1.6,4,0,5.6l-214,214C212.1,361.7,211.3,362.1,210.1,362.1z"/> <path d="M210.1,402.5c-3.6,0-7.2-1.6-10-4L58.9,257.3c-1.6-1.6-1.6-4,0-5.6s4-1.6,5.6,0l141.2,141.2c2,2,4.4,2.4,6.8,1.2 c0.8-0.4,1.6-0.8,2-1.2l260.8-260.8c1.2-1.2,2-2.8,2-4.4s-0.8-3.2-2-4.4l-7.6-7.6c-2.4-2.4-6.4-2.4-8.8,0l-9.2,9.2 c-1.6,1.6-4,1.6-5.6,0s-1.6-4,0-5.6l9.2-9.2c5.2-5.6,14.8-5.6,20.4,0l7.6,7.6c2.8,2.8,4,6.4,4,10c0,4-1.6,7.6-4,10L220.5,398.5 c-1.2,1.2-2.8,2.4-4.8,3.2C213.7,402.1,212.1,402.5,210.1,402.5z"/> </g>
</svg>