<svg width="24" height="24" viewBox="0 0 24 24" fill="none" xmlns="http://www.w3.org/2000/svg">
<path opacity="0.4" d="M9 2C6.38 2 4.25 4.13 4.25 6.75C4.25 9.32 6.26 11.4 8.88 11.49C8.96 11.48 9.04 11.48 9.1 11.49H9.17C10.3994 11.449 11.5646 10.9315 12.4193 10.0469C13.274 9.16234 13.7512 7.98004 13.75 6.75C13.75 4.13 11.62 2 9 2Z" fill="#3E3B6A"/>
<path d="M14.08 14.149C11.29 12.289 6.73996 12.289 3.92996 14.149C2.65996 14.999 1.95996 16.149 1.95996 17.379C1.95996 18.609 2.65996 19.749 3.91996 20.589C5.31996 21.529 7.15996 21.999 8.99996 21.999C10.84 21.999 12.68 21.529 14.08 20.589C15.34 19.739 16.04 18.599 16.04 17.359C16.03 16.129 15.34 14.989 14.08 14.149Z" fill="#3E3B6A"/>
<path opacity="0.4" d="M19.9904 7.33799C20.1504 9.27799 18.7704 10.978 16.8604 11.208H16.8104C16.7504 11.208 16.6904 11.208 16.6404 11.228C15.6704 11.278 14.7804 10.968 14.1104 10.398C15.1404 9.47799 15.7304 8.09799 15.6104 6.59799C15.5417 5.818 15.2768 5.06805 14.8404 4.41799C15.3643 4.16307 15.9425 4.03946 16.5249 4.05781C17.1073 4.07617 17.6765 4.23594 18.1834 4.52334C18.6903 4.81075 19.1197 5.21716 19.4345 5.70752C19.7493 6.19788 19.9401 6.75746 19.9904 7.33799Z" fill="#3E3B6A"/>
<path d="M21.9883 16.59C21.9083 17.56 21.2883 18.4 20.2483 18.97C19.2483 19.52 17.9883 19.78 16.7383 19.75C17.4583 19.1 17.8783 18.29 17.9583 17.43C18.0583 16.19 17.4683 15 16.2883 14.05C15.6183 13.52 14.8383 13.1 13.9883 12.79C16.1983 12.15 18.9783 12.58 20.6883 13.96C21.6083 14.7 22.0783 15.63 21.9883 16.59Z" fill="#3E3B6A"/>
</svg>
