<svg width="40" height="40" viewBox="0 0 40 40" fill="none" xmlns="http://www.w3.org/2000/svg">
<path opacity="0.4" d="M28.4996 3.3335H21.4996C15.7496 3.3335 13.4163 5.61683 13.3496 11.2502H18.4996C25.4996 11.2502 28.7496 14.5002 28.7496 21.5002V26.6502C34.3829 26.5835 36.6663 24.2502 36.6663 18.5002V11.5002C36.6663 5.66683 34.3329 3.3335 28.4996 3.3335Z" fill="#2CA00F"/>
<path d="M18.4997 13.3335H11.4997C5.66634 13.3335 3.33301 15.6668 3.33301 21.5002V28.5002C3.33301 34.3335 5.66634 36.6668 11.4997 36.6668H18.4997C24.333 36.6668 26.6663 34.3335 26.6663 28.5002V21.5002C26.6663 15.6668 24.333 13.3335 18.4997 13.3335ZM20.483 22.7502L14.2997 28.9335C14.1885 29.0456 14.056 29.1343 13.91 29.1944C13.7641 29.2545 13.6075 29.2848 13.4497 29.2835C13.2918 29.2848 13.1353 29.2545 12.9893 29.1944C12.8433 29.1343 12.7108 29.0456 12.5997 28.9335L9.49967 25.8335C9.38871 25.7232 9.30065 25.5921 9.24056 25.4476C9.18047 25.3032 9.14953 25.1483 9.14953 24.9918C9.14953 24.8354 9.18047 24.6805 9.24056 24.536C9.30065 24.3916 9.38871 24.2604 9.49967 24.1502C9.96634 23.6835 10.7163 23.6835 11.183 24.1502L13.433 26.4002L18.783 21.0502C19.2497 20.5835 19.9997 20.5835 20.4663 21.0502C20.933 21.5168 20.9497 22.2835 20.483 22.7502Z" fill="#2CA00F"/>
</svg>
