<svg width="40" height="40" viewBox="0 0 40 40" fill="none" xmlns="http://www.w3.org/2000/svg">
<path d="M26.6663 21.5002V28.5002C26.6663 34.3335 24.333 36.6668 18.4997 36.6668H11.4997C5.66634 36.6668 3.33301 34.3335 3.33301 28.5002V21.5002C3.33301 15.6668 5.66634 13.3335 11.4997 13.3335H18.4997C24.333 13.3335 26.6663 15.6668 26.6663 21.5002Z" fill="white"/>
<path opacity="0.4" d="M28.4996 3.3335H21.4996C15.7496 3.3335 13.4163 5.61683 13.3496 11.2502H18.4996C25.4996 11.2502 28.7496 14.5002 28.7496 21.5002V26.6502C34.3829 26.5835 36.6663 24.2502 36.6663 18.5002V11.5002C36.6663 5.66683 34.3329 3.3335 28.4996 3.3335Z" fill="white"/>
</svg>
