<svg width="24" height="24" viewBox="0 0 24 24" fill="none" xmlns="http://www.w3.org/2000/svg">
<path opacity="0.4" d="M21 22H3C2.59 22 2.25 21.66 2.25 21.25C2.25 20.84 2.59 20.5 3 20.5H21C21.41 20.5 21.75 20.84 21.75 21.25C21.75 21.66 21.41 22 21 22ZM19.02 3.48199C17.08 1.54199 15.18 1.49199 13.19 3.48199L11.98 4.69199C11.88 4.79199 11.84 4.95199 11.88 5.09199C12.2625 6.40437 12.9697 7.59911 13.9363 8.5657C14.9029 9.5323 16.0976 10.2395 17.41 10.622C17.4809 10.6452 17.5568 10.6481 17.6293 10.6305C17.7017 10.6128 17.7678 10.5752 17.82 10.522L19.02 9.31199C20.01 8.33199 20.49 7.38199 20.49 6.42199C20.5 5.43199 20.02 4.47199 19.02 3.48199Z" fill="#3E3B6A"/>
<path d="M15.6103 11.53C15.3203 11.39 15.0403 11.25 14.7703 11.09C14.551 10.9593 14.3375 10.8192 14.1303 10.67C13.9603 10.56 13.7603 10.4 13.5703 10.24C13.5091 10.1954 13.4522 10.1452 13.4003 10.09C13.0703 9.80999 12.7003 9.44999 12.3703 9.04999C12.3403 9.02999 12.2903 8.95999 12.2203 8.86999C12.1203 8.74999 11.9503 8.54999 11.8003 8.31999C11.6578 8.13191 11.5275 7.93483 11.4103 7.72999C11.2503 7.45999 11.1103 7.18999 10.9703 6.90999C10.8303 6.60999 10.7203 6.31999 10.6203 6.04999L4.34032 12.33C4.21032 12.46 4.09032 12.71 4.06032 12.88L3.52032 16.71C3.42032 17.39 3.61032 18.03 4.03032 18.46C4.39032 18.81 4.89032 19 5.43032 19C5.55032 19 5.67032 18.99 5.79032 18.97L9.63032 18.43C9.81032 18.4 10.0603 18.28 10.1803 18.15L16.4603 11.87C16.1803 11.77 15.9103 11.66 15.6103 11.53Z" fill="#3E3B6A"/>
</svg>
