<svg width="24" height="24" viewBox="0 0 24 24" fill="none" xmlns="http://www.w3.org/2000/svg">
<path opacity="0.4" d="M14.9 2H9.1C8.42 2 7.46 2.4 6.98 2.88L2.88 6.98C2.4 7.46 2 8.42 2 9.1V14.9C2 15.58 2.4 16.54 2.88 17.02L6.98 21.12C7.46 21.6 8.42 22 9.1 22H14.9C15.58 22 16.54 21.6 17.02 21.12L21.12 17.02C21.6 16.54 22 15.58 22 14.9V9.1C22 8.42 21.6 7.46 21.12 6.98L17.02 2.88C16.54 2.4 15.58 2 14.9 2Z" fill="#3E3B6A"/>
<path d="M3.01992 21.75C2.82992 21.75 2.63992 21.68 2.48992 21.53C2.35044 21.3889 2.27222 21.1984 2.27222 21C2.27222 20.8016 2.35044 20.6111 2.48992 20.47L20.4699 2.48999C20.7599 2.19999 21.2399 2.19999 21.5299 2.48999C21.8199 2.77999 21.8199 3.25999 21.5299 3.54999L3.54992 21.53C3.48175 21.6015 3.3994 21.658 3.30814 21.6959C3.21687 21.7338 3.11871 21.7522 3.01992 21.75Z" fill="#3E3B6A"/>
</svg>
