<svg width="24" height="24" viewBox="0 0 24 24" fill="none" xmlns="http://www.w3.org/2000/svg">
<path opacity="0.4" d="M9 2C6.38 2 4.25 4.13 4.25 6.75C4.25 9.32 6.26 11.4 8.88 11.49C8.96 11.48 9.04 11.48 9.1 11.49H9.17C10.3994 11.449 11.5646 10.9315 12.4193 10.0469C13.274 9.16234 13.7512 7.98004 13.75 6.75C13.75 4.13 11.62 2 9 2Z" fill="#3E3B6A"/>
<path d="M14.08 14.1489C11.29 12.2889 6.74002 12.2889 3.93002 14.1489C2.66002 14.9989 1.96002 16.1489 1.96002 17.3789C1.96002 18.6089 2.66002 19.7489 3.92002 20.5889C5.32002 21.5289 7.16002 21.9989 9.00002 21.9989C10.84 21.9989 12.68 21.5289 14.08 20.5889C15.34 19.7389 16.04 18.5989 16.04 17.3589C16.03 16.1289 15.34 14.9889 14.08 14.1489Z" fill="#3E3B6A"/>
<path opacity="0.4" d="M19.99 7.33811C20.15 9.27811 18.77 10.9781 16.86 11.2081H16.81C16.75 11.2081 16.69 11.2081 16.64 11.2281C15.67 11.2781 14.78 10.9681 14.11 10.3981C15.14 9.47811 15.73 8.09811 15.61 6.59811C15.5414 5.81812 15.2765 5.06817 14.84 4.41811C15.364 4.1632 15.9421 4.03958 16.5245 4.05793C17.1069 4.07629 17.6762 4.23606 18.1831 4.52347C18.69 4.81087 19.1193 5.21728 19.4341 5.70764C19.7489 6.198 19.9397 6.75758 19.99 7.33811Z" fill="#3E3B6A"/>
<path d="M21.988 16.5899C21.908 17.5599 21.288 18.3999 20.248 18.9699C19.248 19.5199 17.988 19.7799 16.738 19.7499C17.458 19.0999 17.878 18.2899 17.958 17.4299C18.058 16.1899 17.468 14.9999 16.288 14.0499C15.618 13.5199 14.838 13.0999 13.988 12.7899C16.198 12.1499 18.978 12.5799 20.688 13.9599C21.608 14.6999 22.078 15.6299 21.988 16.5899Z" fill="#3E3B6A"/>
</svg>
