<svg width="24" height="24" viewBox="0 0 24 24" fill="none" xmlns="http://www.w3.org/2000/svg">
<path d="M10.13 15.008L9.09996 13.978L10.09 12.988C10.38 12.698 10.38 12.218 10.09 11.928C9.94882 11.7885 9.75839 11.7103 9.55996 11.7103C9.36153 11.7103 9.1711 11.7885 9.02996 11.928L8.03996 12.918L7.07996 11.958C6.93882 11.8185 6.74839 11.7403 6.54996 11.7403C6.35153 11.7403 6.1611 11.8185 6.01996 11.958C5.72996 12.248 5.72996 12.728 6.01996 13.018L6.97996 13.978L5.98996 14.968C5.69996 15.258 5.69996 15.738 5.98996 16.028C6.13996 16.178 6.32996 16.248 6.51996 16.248C6.70996 16.248 6.89996 16.178 7.04996 16.028L8.03996 15.038L9.06996 16.068C9.21996 16.218 9.40996 16.288 9.59996 16.288C9.78996 16.288 9.97996 16.218 10.13 16.068C10.42 15.778 10.42 15.298 10.13 15.008ZM13.54 15C12.99 15 12.53 14.55 12.53 14C12.53 13.45 12.97 13 13.52 13H13.54C14.09 13 14.54 13.45 14.54 14C14.54 14.55 14.1 15 13.54 15ZM17.48 15C16.93 15 16.47 14.55 16.47 14C16.47 13.45 16.91 13 17.46 13H17.48C18.03 13 18.48 13.45 18.48 14C18.48 14.55 18.04 15 17.48 15ZM15.5 16.97C14.95 16.97 14.5 16.53 14.5 15.98V15.96C14.5 15.41 14.95 14.96 15.5 14.96C16.05 14.96 16.5 15.41 16.5 15.96C16.5 16.51 16.06 16.97 15.5 16.97ZM15.5 13.03C14.95 13.03 14.5 12.59 14.5 12.04V12.02C14.5 11.47 14.95 11.02 15.5 11.02C16.05 11.02 16.5 11.47 16.5 12.02C16.5 12.57 16.06 13.03 15.5 13.03Z" fill="#3E3B6A"/>
<path opacity="0.4" d="M22 11.069V16.649C22 19.599 19.6 21.999 16.65 21.999H7.35C4.4 21.999 2 19.599 2 16.649V11.069C2 8.11899 4.4 5.71899 7.35 5.71899H16.65C19.6 5.71899 22 8.11899 22 11.069Z" fill="#3E3B6A"/>
<path d="M13.6401 2.71L13.6301 3.65C13.6223 4.07801 13.4474 4.486 13.1429 4.78682C12.8383 5.08764 12.4282 5.25746 12.0001 5.26C11.8501 5.26 11.7601 5.36 11.7601 5.49C11.7601 5.62 11.8601 5.72 11.9901 5.72H10.3801C10.3701 5.65 10.3601 5.57 10.3601 5.49C10.3601 4.59 11.0901 3.86 11.9801 3.86C12.1301 3.86 12.2301 3.76 12.2301 3.63L12.2401 2.69C12.2501 2.31 12.5601 2 12.9401 2H12.9501C13.3401 2 13.6401 2.32 13.6401 2.71Z" fill="#3E3B6A"/>
</svg>
