<svg width="20" height="20" viewBox="0 0 20 20" fill="none" xmlns="http://www.w3.org/2000/svg">
<path opacity="0.4" d="M15.7822 6.71581L12.5905 9.90748C12.5988 9.94081 12.5988 9.96581 12.5988 9.99915C12.5988 11.4325 11.4322 12.5991 9.99884 12.5991C9.96551 12.5991 9.94051 12.5991 9.90717 12.5908L6.71551 15.7825C7.71172 16.3641 8.84525 16.6691 9.99884 16.6658C13.6738 16.6658 16.6655 13.6741 16.6655 9.99915C16.6655 8.80748 16.3488 7.68248 15.7822 6.71581ZM14.708 5.29165L11.833 8.16665C11.3663 7.69165 10.7163 7.39998 9.99967 7.39998C8.56634 7.39998 7.39967 8.56665 7.39967 9.99998C7.39967 10.7166 7.69134 11.3666 8.16634 11.8333L5.29134 14.7083C4.67101 14.0911 4.17868 13.3574 3.84262 12.5494C3.50656 11.7415 3.33337 10.8751 3.33301 9.99998C3.33301 6.32498 6.32467 3.33331 9.99967 3.33331C11.833 3.33331 13.4997 4.08331 14.708 5.29165Z" fill="#3E3B6A"/>
<path d="M11.8328 8.16585L8.16616 11.8325C7.69116 11.3659 7.39949 10.7159 7.39949 9.99919C7.39949 8.56585 8.56616 7.39919 9.99949 7.39919C10.7162 7.39919 11.3662 7.69085 11.8328 8.16585ZM10.6253 1.66669V3.36669H10.617C10.417 3.34169 10.2087 3.33335 10.0003 3.33335C9.79199 3.33335 9.58366 3.34169 9.38366 3.36669H9.37533V1.66669C9.37533 1.32502 9.65866 1.04169 10.0003 1.04169C10.342 1.04169 10.6253 1.32502 10.6253 1.66669ZM3.33366 10C3.33366 10.2084 3.34199 10.425 3.36699 10.625H1.66699C1.32533 10.625 1.04199 10.3417 1.04199 10C1.04199 9.65835 1.32533 9.37502 1.66699 9.37502H3.36699C3.34199 9.57502 3.33366 9.79169 3.33366 10ZM10.6253 16.6334V18.3334C10.6253 18.675 10.342 18.9584 10.0003 18.9584C9.65866 18.9584 9.37533 18.675 9.37533 18.3334V16.6334H9.38366C9.58366 16.6584 9.79199 16.6667 10.0003 16.6667C10.2087 16.6667 10.417 16.6584 10.617 16.6334H10.6253ZM18.9587 10C18.9587 10.3417 18.6753 10.625 18.3337 10.625H16.6337C16.6587 10.425 16.667 10.2084 16.667 10C16.667 9.79169 16.6587 9.57502 16.6337 9.37502H18.3337C18.6753 9.37502 18.9587 9.65835 18.9587 10Z" fill="#3E3B6A"/>
<path d="M18.4708 2.1875C18.2208 1.9375 17.8125 1.9375 17.5625 2.1875L2.1875 17.5708C1.9375 17.8208 1.9375 18.2292 2.1875 18.4792C2.24682 18.5383 2.31731 18.585 2.39487 18.6167C2.47242 18.6483 2.55549 18.6642 2.63924 18.6634C2.723 18.6626 2.80576 18.6452 2.88271 18.6121C2.95967 18.5791 3.02928 18.531 3.0875 18.4708L18.4708 3.0875C18.7292 2.8375 18.7292 2.4375 18.4708 2.1875Z" fill="#3E3B6A"/>
</svg>
