<svg width="10" height="934" viewBox="0 0 10 934" fill="none" xmlns="http://www.w3.org/2000/svg">
<path d="M4.06079e-05 929L4.08264e-05 934L10 934L10 929L4.06079e-05 929ZM0 2.18557e-07L3.27483e-07 7.49194L10 7.49194L10 -2.18557e-07L0 2.18557e-07ZM9.82449e-07 22.4758L1.63741e-06 37.4597L10 37.4597L10 22.4758L9.82449e-07 22.4758ZM2.29238e-06 52.4435L2.94735e-06 67.4274L10 67.4274L10 52.4435L2.29238e-06 52.4435ZM3.60231e-06 82.4113L4.25728e-06 97.3952L10 97.3952L10 82.4113L3.60231e-06 82.4113ZM4.91224e-06 112.379L5.56721e-06 127.363L10 127.363L10 112.379L4.91224e-06 112.379ZM6.22217e-06 142.347L6.87714e-06 157.331L10 157.331L10 142.347L6.22217e-06 142.347ZM7.53211e-06 172.315L8.18707e-06 187.298L10 187.298L10 172.315L7.53211e-06 172.315ZM8.84204e-06 202.282L9.497e-06 217.266L10 217.266L10 202.282L8.84204e-06 202.282ZM1.0152e-05 232.25L1.08069e-05 247.234L10 247.234L10 232.25L1.0152e-05 232.25ZM1.14619e-05 262.218L1.21169e-05 277.202L10 277.202L10 262.218L1.14619e-05 262.218ZM1.27718e-05 292.185L1.34268e-05 307.169L10 307.169L10 292.185L1.27718e-05 292.185ZM1.40818e-05 322.153L1.47367e-05 337.137L10 337.137L10 322.153L1.40818e-05 322.153ZM1.53917e-05 352.121L1.60467e-05 367.105L10 367.105L10 352.121L1.53917e-05 352.121ZM1.67016e-05 382.089L1.73566e-05 397.072L10 397.072L10 382.089L1.67016e-05 382.089ZM1.80116e-05 412.056L1.86665e-05 427.04L10 427.04L10 412.056L1.80116e-05 412.056ZM1.93215e-05 442.024L1.99764e-05 457.008L10 457.008L10 442.024L1.93215e-05 442.024ZM2.06314e-05 471.992L2.12864e-05 486.976L10 486.976L10 471.992L2.06314e-05 471.992ZM2.19413e-05 501.959L2.25963e-05 516.943L10 516.943L10 501.959L2.19413e-05 501.959ZM2.32513e-05 531.927L2.39062e-05 546.911L10 546.911L10 531.927L2.32513e-05 531.927ZM2.45612e-05 561.895L2.52162e-05 576.879L10 576.879L10 561.895L2.45612e-05 561.895ZM2.58711e-05 591.863L2.65261e-05 606.847L10 606.847L10 591.863L2.58711e-05 591.863ZM2.71811e-05 621.831L2.7836e-05 636.814L10 636.814L10 621.831L2.71811e-05 621.831ZM2.8491e-05 651.798L2.9146e-05 666.782L10 666.782L10 651.798L2.8491e-05 651.798ZM2.98009e-05 681.766L3.04559e-05 696.75L10 696.75L10 681.766L2.98009e-05 681.766ZM3.11109e-05 711.734L3.17658e-05 726.718L10 726.718L10 711.734L3.11109e-05 711.734ZM3.24208e-05 741.702L3.30758e-05 756.685L10 756.685L10 741.702L3.24208e-05 741.702ZM3.37307e-05 771.669L3.43857e-05 786.653L10 786.653L10 771.669L3.37307e-05 771.669ZM3.50407e-05 801.637L3.56956e-05 816.621L10 816.621L10 801.637L3.50407e-05 801.637ZM3.63506e-05 831.605L3.70056e-05 846.589L10 846.589L10 831.605L3.63506e-05 831.605ZM3.76605e-05 861.573L3.83155e-05 876.557L10 876.557L10 861.573L3.76605e-05 861.573ZM3.89705e-05 891.54L3.96254e-05 906.524L10 906.524L10 891.54L3.89705e-05 891.54ZM4.02804e-05 921.508L4.06079e-05 929L10 929L10 921.508L4.02804e-05 921.508Z" fill="url(#paint0_linear_2021_2796)"/>
<defs>
<linearGradient id="paint0_linear_2021_2796" x1="5" y1="921.5" x2="5" y2="64.5" gradientUnits="userSpaceOnUse">
<stop stop-color="white" stop-opacity="0"/>
<stop offset="0.347219" stop-color="white"/>
<stop offset="0.722225" stop-color="white"/>
<stop offset="1" stop-color="white" stop-opacity="0"/>
</linearGradient>
</defs>
</svg>
