<svg width="40" height="40" viewBox="0 0 40 40" fill="none" xmlns="http://www.w3.org/2000/svg">
<path opacity="0.4" d="M16.6621 12V27.9834C16.6621 33.3334 19.9954 36.6667 25.3288 36.6667H29.6454C34.9788 36.6667 38.3121 33.3334 38.3121 28V12C38.3288 6.66671 34.9954 3.33337 29.6621 3.33337H25.3288C19.9954 3.33337 16.6621 6.66671 16.6621 12Z" fill="#FF0059"/>
<path d="M10.9458 13.5333L5.3625 19.1167C4.87917 19.6 4.87917 20.4 5.3625 20.8833L10.9458 26.4667C11.4292 26.95 12.2292 26.95 12.7125 26.4667C13.1958 25.9833 13.1958 25.1833 12.7125 24.7L9.2625 21.25H27.0792C27.7625 21.25 28.3292 20.6833 28.3292 20C28.3292 19.3167 27.7625 18.75 27.0792 18.75H9.2625L12.7125 15.3C12.9625 15.05 13.0792 14.7333 13.0792 14.4167C13.0792 14.1 12.9625 13.7667 12.7125 13.5333C12.2292 13.0333 11.4458 13.0333 10.9458 13.5333Z" fill="#FF0059"/>
</svg>
