<svg version="1.2" xmlns="http://www.w3.org/2000/svg" viewBox="0 0 787 786" width="787" height="786"><style>.a{fill:#fff}.b{fill:#3e3b6a}</style><path class="a" d="m0.3 36.2l42.5-33.1c0 0 183.3-10.6 219.9 7.1 36.6 17.7 121.2 69.3 97 191.5-24.3 122.2-173.5 118.2-191.6 118.2-18 0-44.9 0-44.9 0l-4.7 111.1h-115.9z"/><path class="a" d="m730.9 140.2l2.4 357.1-63.9 59.1c0 0-40.8-32.4-78-19-37.3 13.5-72.3 43.9-61.5 106.4 9.7 56.2 113.1 76.7 146.6 21.3l-66.2-2.3v-54.4l175-2.4c0 0 13.8 85.2-73.3 146.6-87.2 61.4-176.3 20.8-193.9 9.5-17.7-11.4-82.2-51.6-85.1-146.6 0 0-2-10.3-11.9 2.3-9.8 12.7-90.3 65.3-191.5 21.3-101.2-44-101.7-146.6-101.7-146.6 0 0-3.6-78.2 47.3-120.6 51-42.3 96-66.5 186.8-44.9 0 0 23.1 7.7 30.8 14.2 0 0 5.3 8.5 4.7-11.8-0.6-20.3 0-186.8 0-186.8h40.2l165.5 156v-158.4z"/><path class="b" d="m487.3 327c0 0-1.8-15.3 7.1-7.1 9 8.2 134.8 125.3 134.8 125.3 0 0 5.8 9.7-4.7 7.1-10.6-2.6-75.3-8.3-127.7 35.5 0 0-7 13.5-7.1-4.7-0.1-18.3-2.4-156.1-2.4-156.1z"/><path class="b" d="m378.6 435.8c0 0 32.9 39.5 4.7 89.8-28.2 50.4-95.7 52.8-125.3 28.4-29.6-24.4-36.3-42.6-35.5-75.7 0.8-33.1 34.8-60.3 56.8-70.9 21.9-10.6 79.9-9.2 99.3 28.4z"/><path class="b" d="m120.9 95.3l2.3 125.3 73.3 2.4c0 0 68.3-7.5 70.4-55.1 2.4-50.7-26.2-70.5-42-70.2-24.2-4.2-73.3-2.4-73.3-2.4z"/></svg>