<svg width="24" height="24" viewBox="0 0 24 24" fill="none" xmlns="http://www.w3.org/2000/svg">
<path opacity="0.4" d="M16.8 9H7.2C4 9 2 11 2 14.2V16.79C2 20 4 22 7.2 22H16.79C19.99 22 21.99 20 21.99 16.8V14.2C22 11 20 9 16.8 9Z" fill="white"/>
<path d="M15.88 5.57014L12.53 2.22014C12.3889 2.08066 12.1985 2.00244 12 2.00244C11.8016 2.00244 11.6112 2.08066 11.47 2.22014L8.12003 5.57014C7.83003 5.86014 7.83003 6.34014 8.12003 6.63014C8.41003 6.92014 8.89003 6.92014 9.18003 6.63014L11.25 4.56014V15.2501C11.25 15.6601 11.59 16.0001 12 16.0001C12.41 16.0001 12.75 15.6601 12.75 15.2501V4.56014L14.82 6.63014C14.97 6.78014 15.16 6.85014 15.35 6.85014C15.54 6.85014 15.73 6.78014 15.88 6.63014C16.18 6.34014 16.18 5.87014 15.88 5.57014Z" fill="white"/>
</svg>
