<svg width="7" height="7" viewBox="0 0 7 7" fill="none" xmlns="http://www.w3.org/2000/svg">
<g clip-path="url(#clip0_1331_7595)">
<path d="M4.78829 1.87308V2.21142L2.66496 4.33475C2.52203 4.20457 2.40776 4.04605 2.32942 3.8693C2.25109 3.69254 2.2104 3.50142 2.20996 3.30808V1.87308C2.20996 1.27225 2.61829 0.773501 3.17246 0.630584C3.22788 0.616001 3.28038 0.662668 3.28038 0.718084V1.16725C3.28038 1.28683 3.37954 1.386 3.49913 1.386C3.61871 1.386 3.71788 1.28683 3.71788 1.16725V0.718084C3.71788 0.662668 3.77038 0.616001 3.82579 0.630584C4.37996 0.773501 4.78829 1.27225 4.78829 1.87308ZM5.77821 2.86154V3.32529C5.77821 4.51238 4.86529 5.48946 3.70446 5.59154V6.21279C3.70446 6.32654 3.61404 6.41696 3.50029 6.41696C3.38654 6.41696 3.29613 6.32654 3.29613 6.21279V5.59154C2.97821 5.56238 2.67779 5.46904 2.40946 5.32029L2.70988 5.01988C2.94904 5.13071 3.21738 5.19488 3.50029 5.19488C4.53279 5.19488 5.37279 4.35488 5.37279 3.32529V2.86154C5.37279 2.75071 5.46321 2.66029 5.57696 2.66029C5.68779 2.66029 5.77821 2.75071 5.77821 2.86154Z" fill="#3E3B6A"/>
<path d="M4.78845 2.93942V3.36234C4.78845 4.11484 4.14095 4.71859 3.37095 4.64567C3.28928 4.63692 3.20761 4.62234 3.13178 4.59609L4.78845 2.93942ZM6.34974 0.650128C6.26224 0.562628 6.11932 0.562628 6.03182 0.650128L2.10891 4.57304C1.79786 4.23186 1.62613 3.7864 1.62766 3.32471V2.86096C1.62766 2.75013 1.53724 2.65971 1.42349 2.65971C1.31266 2.65971 1.22224 2.75013 1.22224 2.86096V3.32471C1.22224 3.91679 1.44974 4.45638 1.82016 4.86179L0.647656 6.03429C0.560156 6.12179 0.560156 6.26471 0.647656 6.35221C0.694323 6.39304 0.74974 6.41638 0.808073 6.41638C0.866406 6.41638 0.921823 6.39304 0.965573 6.34929L6.34974 0.965128C6.44016 0.877628 6.44016 0.737628 6.34974 0.650128Z" fill="#3E3B6A"/>
</g>
<defs>
<clipPath id="clip0_1331_7595">
<rect width="7" height="7" fill="white"/>
</clipPath>
</defs>
</svg>
