<svg width="16" height="16" viewBox="0 0 16 16" fill="none" xmlns="http://www.w3.org/2000/svg">
<path d="M10.9451 4.28135V5.05469L6.09176 9.90802C5.76505 9.61045 5.50386 9.24814 5.32481 8.84413C5.14576 8.44012 5.05277 8.00326 5.05176 7.56135V4.28135C5.05176 2.90802 5.98509 1.76802 7.25176 1.44135C7.37842 1.40802 7.49842 1.51469 7.49842 1.64135V2.66802C7.49842 2.94135 7.72509 3.16802 7.99842 3.16802C8.27176 3.16802 8.49842 2.94135 8.49842 2.66802V1.64135C8.49842 1.51469 8.61842 1.40802 8.74509 1.44135C10.0118 1.76802 10.9451 2.90802 10.9451 4.28135Z" fill="white"/>
<path opacity="0.4" d="M5.18728 10.814L4.52728 11.474C3.98214 10.9867 3.54598 10.3898 3.2473 9.72231C2.94861 9.05487 2.79413 8.33191 2.79395 7.60069V6.54069C2.79395 6.28735 3.00061 6.08069 3.25395 6.08069C3.51395 6.08069 3.72061 6.28735 3.72061 6.54069V7.60069C3.72061 8.88069 4.28728 10.034 5.18728 10.814ZM13.2079 6.54069V7.60069C13.2079 10.314 11.1213 12.5474 8.46794 12.7807V14.2007C8.46794 14.4607 8.26128 14.6674 8.00128 14.6674C7.74128 14.6674 7.53461 14.4607 7.53461 14.2007V12.7807C6.80795 12.714 6.12128 12.5007 5.50795 12.1607L6.19461 11.474C6.74128 11.7274 7.35461 11.874 8.00128 11.874C10.3613 11.874 12.2813 9.95402 12.2813 7.60069V6.54069C12.2813 6.28735 12.4879 6.08069 12.7479 6.08069C13.0013 6.08069 13.2079 6.28735 13.2079 6.54069Z" fill="white"/>
<path opacity="0.4" d="M10.9449 6.71869V7.68536C10.9449 9.40536 9.46487 10.7854 7.70487 10.6187C7.5182 10.5987 7.33154 10.5654 7.1582 10.5054L10.9449 6.71869Z" fill="white"/>
<path d="M14.5126 1.486C14.3126 1.286 13.9859 1.286 13.7859 1.486L1.48594 13.7927C1.28594 13.9927 1.28594 14.3193 1.48594 14.5193C1.5334 14.5666 1.58979 14.604 1.65183 14.6293C1.71388 14.6546 1.78033 14.6673 1.84733 14.6667C1.91433 14.6661 1.98054 14.6522 2.04211 14.6257C2.10367 14.5993 2.15936 14.5608 2.20594 14.5127L14.5126 2.206C14.7193 2.006 14.7193 1.686 14.5126 1.486Z" fill="white"/>
</svg>
