<svg width="20" height="20" viewBox="0 0 20 20" fill="none" xmlns="http://www.w3.org/2000/svg">
<path d="M13.6821 5.35166V6.31833L7.61543 12.385C7.20704 12.013 6.88056 11.5601 6.65675 11.0551C6.43293 10.5501 6.3167 10.004 6.31543 9.45166V5.35166C6.31543 3.63499 7.4821 2.20999 9.06543 1.80166C9.22376 1.75999 9.37376 1.89333 9.37376 2.05166V3.33499C9.37376 3.67666 9.6571 3.95999 9.99876 3.95999C10.3404 3.95999 10.6238 3.67666 10.6238 3.33499V2.05166C10.6238 1.89333 10.7738 1.75999 10.9321 1.80166C12.5154 2.20999 13.6821 3.63499 13.6821 5.35166Z" fill="#3E3B6A"/>
<path opacity="0.4" d="M6.48385 13.5175L5.65885 14.3425C4.97743 13.7333 4.43223 12.9872 4.05888 12.1529C3.68552 11.3186 3.49242 10.4149 3.49219 9.50083V8.17583C3.49219 7.85916 3.75052 7.60083 4.06719 7.60083C4.39219 7.60083 4.65052 7.85916 4.65052 8.17583V9.50083C4.65052 11.1008 5.35885 12.5425 6.48385 13.5175ZM16.5097 8.17583V9.50083C16.5097 12.8925 13.9014 15.6842 10.5847 15.9758V17.7508C10.5847 18.0758 10.3264 18.3342 10.0014 18.3342C9.67635 18.3342 9.41802 18.0758 9.41802 17.7508V15.9758C8.50969 15.8925 7.65135 15.6258 6.88469 15.2008L7.74302 14.3425C8.42635 14.6592 9.19302 14.8425 10.0014 14.8425C12.9514 14.8425 15.3514 12.4425 15.3514 9.50083V8.17583C15.3514 7.85916 15.6097 7.60083 15.9347 7.60083C16.2514 7.60083 16.5097 7.85916 16.5097 8.17583Z" fill="#3E3B6A"/>
<path opacity="0.4" d="M13.6816 8.39832V9.60665C13.6816 11.7566 11.8316 13.4816 9.63158 13.2733C9.39824 13.2483 9.16491 13.2066 8.94824 13.1316L13.6816 8.39832Z" fill="#3E3B6A"/>
<path d="M18.1408 1.85748C17.8908 1.60748 17.4824 1.60748 17.2324 1.85748L1.85742 17.2408C1.60742 17.4908 1.60742 17.8992 1.85742 18.1492C1.91675 18.2083 1.98724 18.255 2.06479 18.2866C2.14234 18.3183 2.22541 18.3342 2.30917 18.3334C2.39292 18.3326 2.47568 18.3152 2.55263 18.2821C2.62959 18.2491 2.6992 18.201 2.75742 18.1408L18.1408 2.75748C18.3991 2.50748 18.3991 2.10748 18.1408 1.85748Z" fill="#3E3B6A"/>
</svg>
