<svg width="24" height="24" viewBox="0 0 24 24" fill="none" xmlns="http://www.w3.org/2000/svg">
<path opacity="0.4" d="M19.3399 14.488L18.3399 12.828C18.1299 12.458 17.9399 11.758 17.9399 11.348V8.81801C17.9399 5.55801 15.2899 2.89801 12.0199 2.89801C8.74994 2.89801 6.09994 5.55801 6.09994 8.81801V11.348C6.09994 11.758 5.90994 12.458 5.69994 12.818L4.68994 14.488C4.28994 15.158 4.19994 15.898 4.44994 16.578C4.68994 17.248 5.25994 17.768 5.99994 18.018C7.93994 18.678 9.97994 18.998 12.0199 18.998C14.0599 18.998 16.0999 18.678 18.0399 18.028C18.7399 17.798 19.2799 17.268 19.5399 16.578C19.7999 15.888 19.7299 15.128 19.3399 14.488Z" fill="white"/>
<path d="M14.2497 3.32C13.5597 3.05 12.8097 2.9 12.0197 2.9C11.2397 2.9 10.4897 3.04 9.79969 3.32C10.2297 2.51 11.0797 2 12.0197 2C12.9697 2 13.8097 2.51 14.2497 3.32ZM14.8297 20.01C14.6194 20.5922 14.235 21.0954 13.7286 21.4515C13.2223 21.8075 12.6187 21.999 11.9997 22C11.2097 22 10.4297 21.68 9.87969 21.11C9.55969 20.81 9.31969 20.41 9.17969 20C9.30969 20.02 9.43969 20.03 9.57969 20.05C9.80969 20.08 10.0497 20.11 10.2897 20.13C10.8597 20.18 11.4397 20.21 12.0197 20.21C12.5897 20.21 13.1597 20.18 13.7197 20.13C13.9297 20.11 14.1397 20.1 14.3397 20.07L14.8297 20.01Z" fill="white"/>
</svg>
