<svg width="24" height="24" viewBox="0 0 24 24" fill="none" xmlns="http://www.w3.org/2000/svg">
<path d="M10.13 15.008L9.10002 13.978L10.09 12.988C10.38 12.698 10.38 12.218 10.09 11.928C9.94888 11.7885 9.75845 11.7103 9.56002 11.7103C9.36159 11.7103 9.17116 11.7885 9.03002 11.928L8.04002 12.918L7.08002 11.958C6.93888 11.8185 6.74845 11.7403 6.55002 11.7403C6.35159 11.7403 6.16116 11.8185 6.02002 11.958C5.73002 12.248 5.73002 12.728 6.02002 13.018L6.98002 13.978L5.99002 14.968C5.70002 15.258 5.70002 15.738 5.99002 16.028C6.14002 16.178 6.33002 16.248 6.52002 16.248C6.71002 16.248 6.90002 16.178 7.05002 16.028L8.04002 15.038L9.07002 16.068C9.22002 16.218 9.41002 16.288 9.60002 16.288C9.79002 16.288 9.98002 16.218 10.13 16.068C10.42 15.778 10.42 15.298 10.13 15.008ZM13.54 15C12.99 15 12.53 14.55 12.53 14C12.53 13.45 12.97 13 13.52 13H13.54C14.09 13 14.54 13.45 14.54 14C14.54 14.55 14.1 15 13.54 15ZM17.48 15C16.93 15 16.47 14.55 16.47 14C16.47 13.45 16.91 13 17.46 13H17.48C18.03 13 18.48 13.45 18.48 14C18.48 14.55 18.04 15 17.48 15ZM15.5 16.97C14.95 16.97 14.5 16.53 14.5 15.98V15.96C14.5 15.41 14.95 14.96 15.5 14.96C16.05 14.96 16.5 15.41 16.5 15.96C16.5 16.51 16.06 16.97 15.5 16.97ZM15.5 13.03C14.95 13.03 14.5 12.59 14.5 12.04V12.02C14.5 11.47 14.95 11.02 15.5 11.02C16.05 11.02 16.5 11.47 16.5 12.02C16.5 12.57 16.06 13.03 15.5 13.03Z" fill="#3E3B6A"/>
<path opacity="0.4" d="M22 11.0692V16.6492C22 19.5992 19.6 21.9992 16.65 21.9992H7.35C4.4 21.9992 2 19.5992 2 16.6492V11.0692C2 8.11924 4.4 5.71924 7.35 5.71924H16.65C19.6 5.71924 22 8.11924 22 11.0692Z" fill="#3E3B6A"/>
<path d="M13.64 2.71L13.63 3.65C13.6222 4.07801 13.4473 4.486 13.1427 4.78682C12.8382 5.08764 12.4281 5.25746 12 5.26C11.85 5.26 11.76 5.36 11.76 5.49C11.76 5.62 11.86 5.72 11.99 5.72H10.38C10.37 5.65 10.36 5.57 10.36 5.49C10.36 4.59 11.09 3.86 11.98 3.86C12.13 3.86 12.23 3.76 12.23 3.63L12.24 2.69C12.25 2.31 12.56 2 12.94 2H12.95C13.34 2 13.64 2.32 13.64 2.71Z" fill="#3E3B6A"/>
</svg>
