<svg width="24" height="24" viewBox="0 0 24 24" fill="none" xmlns="http://www.w3.org/2000/svg">
<path opacity="0.4" d="M22 7.81V16.19C22 19 20.71 20.93 18.44 21.66C17.78 21.89 17.02 22 16.19 22H7.81C6.98 22 6.22 21.89 5.56 21.66C3.29 20.93 2 19 2 16.19V7.81C2 4.17 4.17 2 7.81 2H16.19C19.83 2 22 4.17 22 7.81Z" fill="white"/>
<path d="M18.439 21.659C17.779 21.889 17.019 21.999 16.189 21.999H7.80902C6.97902 21.999 6.21902 21.889 5.55902 21.659C5.90902 19.019 8.66902 16.969 11.999 16.969C15.329 16.969 18.089 19.019 18.439 21.659ZM15.582 11.58C15.582 13.56 13.982 15.17 12.002 15.17C10.022 15.17 8.42202 13.56 8.42202 11.58C8.42202 9.6 10.022 8 12.002 8C13.982 8 15.582 9.6 15.582 11.58Z" fill="white"/>
</svg>
