<svg width="24" height="24" viewBox="0 0 24 24" fill="none" xmlns="http://www.w3.org/2000/svg">
<path opacity="0.4" d="M11.5 21C12.7476 21 13.9829 20.7543 15.1355 20.2769C16.2881 19.7994 17.3354 19.0997 18.2175 18.2175C19.0997 17.3354 19.7994 16.2881 20.2769 15.1355C20.7543 13.9829 21 12.7476 21 11.5C21 10.2524 20.7543 9.0171 20.2769 7.86451C19.7994 6.71191 19.0997 5.66464 18.2175 4.78249C17.3354 3.90033 16.2881 3.20056 15.1355 2.72314C13.9829 2.24572 12.7476 2 11.5 2C8.98044 2 6.56408 3.00089 4.78249 4.78249C3.00089 6.56408 2 8.98044 2 11.5C2 14.0196 3.00089 16.4359 4.78249 18.2175C6.56408 19.9991 8.98044 21 11.5 21Z" fill="#3E3B6A"/>
<path d="M21.3 21.9991C21.12 21.9991 20.94 21.9291 20.81 21.7991L18.95 19.9391C18.8202 19.807 18.7474 19.6293 18.7474 19.4441C18.7474 19.2589 18.8202 19.0811 18.95 18.9491C19.22 18.6791 19.66 18.6791 19.94 18.9491L21.8 20.8091C22.07 21.0791 22.07 21.5191 21.8 21.7991C21.66 21.9291 21.48 21.9991 21.3 21.9991Z" fill="#3E3B6A"/>
</svg>
