<svg width="24" height="24" viewBox="0 0 24 24" fill="none" xmlns="http://www.w3.org/2000/svg">
<path opacity="0.4" d="M7.1099 5.96101L16.1299 2.95101C20.1799 1.60101 22.3799 3.81101 21.0399 7.86101L18.0299 16.881C16.0099 22.951 12.6899 22.951 10.6699 16.881L9.7799 14.201L7.0999 13.311C1.0399 11.301 1.0399 7.99101 7.1099 5.96101Z" fill="#3E3B6A"/>
<path d="M12.12 12.38C11.93 12.38 11.74 12.31 11.59 12.16C11.4505 12.0189 11.3723 11.8284 11.3723 11.63C11.3723 11.4316 11.4505 11.2411 11.59 11.1L15.39 7.28C15.68 6.99 16.16 6.99 16.45 7.28C16.74 7.57 16.74 8.05 16.45 8.34L12.65 12.16C12.5 12.3 12.31 12.38 12.12 12.38Z" fill="#3E3B6A"/>
</svg>
