<svg width="24" height="24" viewBox="0 0 24 24" fill="none" xmlns="http://www.w3.org/2000/svg">
<path opacity="0.4" d="M7.11039 5.96101L16.1304 2.95101C20.1804 1.60101 22.3804 3.81101 21.0404 7.86101L18.0304 16.881C16.0104 22.951 12.6904 22.951 10.6704 16.881L9.78039 14.201L7.10039 13.311C1.04039 11.301 1.04039 7.99101 7.11039 5.96101Z" fill="#3E3B6A"/>
<path d="M12.1198 12.38C11.9298 12.38 11.7398 12.31 11.5898 12.16C11.4503 12.0189 11.3721 11.8284 11.3721 11.63C11.3721 11.4316 11.4503 11.2411 11.5898 11.1L15.3898 7.28C15.6798 6.99 16.1598 6.99 16.4498 7.28C16.7398 7.57 16.7398 8.05 16.4498 8.34L12.6498 12.16C12.4998 12.3 12.3098 12.38 12.1198 12.38Z" fill="#3E3B6A"/>
</svg>
