<svg width="18" height="18" viewBox="0 0 18 18" fill="none" xmlns="http://www.w3.org/2000/svg">
<path opacity="0.4" d="M7.86762 1.67193L4.12512 3.07443C3.26262 3.39693 2.55762 4.41693 2.55762 5.33943V10.9119C2.55762 11.7969 3.14262 12.9594 3.85512 13.4919L7.08012 15.8994C8.13762 16.6944 9.87762 16.6944 10.9351 15.8994L14.1601 13.4919C14.8726 12.9594 15.4576 11.7969 15.4576 10.9119V5.33943C15.4576 4.41693 14.7526 3.39693 13.8901 3.07443L10.1476 1.67193C9.51012 1.43943 8.49012 1.43943 7.86762 1.67193Z" fill="#3E3B6A"/>
<path d="M8.92512 8.47594H9.00012C9.86262 8.44594 10.5376 7.74844 10.5451 6.87844C10.5451 5.99344 9.82512 5.27344 8.94012 5.27344C8.05512 5.27344 7.33512 5.99344 7.33512 6.87844C7.35012 7.74094 8.02512 8.44594 8.92512 8.47594ZM10.6426 10.0592C9.73512 9.45919 8.26512 9.45919 7.35012 10.0592C6.93012 10.3442 6.68262 10.7492 6.68262 11.1692C6.68262 11.5967 6.92262 11.9867 7.35012 12.2717C7.80762 12.5717 8.40012 12.7292 8.99262 12.7292C9.58512 12.7292 10.1851 12.5792 10.6351 12.2717C11.0551 11.9867 11.3026 11.5817 11.3026 11.1617C11.3101 10.7342 11.0701 10.3442 10.6426 10.0592Z" fill="#3E3B6A"/>
<path d="M8.92512 8.47594H9.00012C9.86262 8.44594 10.5376 7.74844 10.5451 6.87844C10.5451 5.99344 9.82512 5.27344 8.94012 5.27344C8.05512 5.27344 7.33512 5.99344 7.33512 6.87844C7.35012 7.74094 8.02512 8.44594 8.92512 8.47594ZM10.6426 10.0592C9.73512 9.45919 8.26512 9.45919 7.35012 10.0592C6.93012 10.3442 6.68262 10.7492 6.68262 11.1692C6.68262 11.5967 6.92262 11.9867 7.35012 12.2717C7.80762 12.5717 8.40012 12.7292 8.99262 12.7292C9.58512 12.7292 10.1851 12.5792 10.6351 12.2717C11.0551 11.9867 11.3026 11.5817 11.3026 11.1617C11.3101 10.7342 11.0701 10.3442 10.6426 10.0592Z" fill="#3E3B6A"/>
<path d="M3.46086 15.9999C3.34379 15.9999 3.22672 15.9496 3.13429 15.8417C3.04835 15.7403 3.00015 15.6034 3.00015 15.4608C3.00015 15.3182 3.04835 15.1813 3.13429 15.0798L14.213 2.15633C14.3917 1.94789 14.6874 1.94789 14.8661 2.15633C15.0448 2.36478 15.0448 2.70979 14.8661 2.91823L3.78743 15.8417C3.74543 15.8932 3.69468 15.9338 3.63845 15.961C3.58222 15.9882 3.52173 16.0015 3.46086 15.9999Z" fill="#3E3B6A"/>
</svg>
