<svg width="24" height="24" viewBox="0 0 24 24" fill="none" xmlns="http://www.w3.org/2000/svg">
<path opacity="0.4" d="M2 12.8809V11.1209C2 10.0809 2.85 9.22091 3.9 9.22091C5.71 9.22091 6.45 7.94091 5.54 6.37091C5.02 5.47091 5.33 4.30091 6.24 3.78091L7.97 2.79091C8.76 2.32091 9.78 2.60091 10.25 3.39091L10.36 3.58091C11.26 5.15091 12.74 5.15091 13.65 3.58091L13.76 3.39091C14.23 2.60091 15.25 2.32091 16.04 2.79091L17.77 3.78091C18.68 4.30091 18.99 5.47091 18.47 6.37091C17.56 7.94091 18.3 9.22091 20.11 9.22091C21.15 9.22091 22.01 10.0709 22.01 11.1209V12.8809C22.01 13.9209 21.16 14.7809 20.11 14.7809C18.3 14.7809 17.56 16.0609 18.47 17.6309C18.99 18.5409 18.68 19.7009 17.77 20.2209L16.04 21.2109C15.25 21.6809 14.23 21.4009 13.76 20.6109L13.65 20.4209C12.75 18.8509 11.27 18.8509 10.36 20.4209L10.25 20.6109C9.78 21.4009 8.76 21.6809 7.97 21.2109L6.24 20.2209C5.8041 19.9699 5.48558 19.5563 5.35435 19.0707C5.22311 18.5851 5.28988 18.0673 5.54 17.6309C6.45 16.0609 5.71 14.7809 3.9 14.7809C2.85 14.7809 2 13.9209 2 12.8809Z" fill="#3E3B6A"/>
<path d="M12 15.25C12.862 15.25 13.6886 14.9076 14.2981 14.2981C14.9076 13.6886 15.25 12.862 15.25 12C15.25 11.138 14.9076 10.3114 14.2981 9.7019C13.6886 9.09241 12.862 8.75 12 8.75C11.138 8.75 10.3114 9.09241 9.7019 9.7019C9.09241 10.3114 8.75 11.138 8.75 12C8.75 12.862 9.09241 13.6886 9.7019 14.2981C10.3114 14.9076 11.138 15.25 12 15.25Z" fill="#3E3B6A"/>
</svg>
