<svg width="24" height="24" viewBox="0 0 24 24" fill="none" xmlns="http://www.w3.org/2000/svg">
<path d="M19.0712 14.2421C18.7812 14.5321 18.3212 14.5321 18.0413 14.2421C17.9724 14.1751 17.9176 14.0951 17.8802 14.0066C17.8428 13.9182 17.8235 13.8231 17.8235 13.7271C17.8235 13.631 17.8428 13.536 17.8802 13.4475C17.9176 13.359 17.9724 13.279 18.0413 13.2121C20.0413 11.2121 20.0413 7.96205 18.0413 5.97205C16.0413 3.98205 12.7912 3.97205 10.8012 5.97205C8.81125 7.97205 8.80125 11.2221 10.8012 13.2121C11.0912 13.5021 11.0912 13.9621 10.8012 14.2421C10.5112 14.5321 10.0512 14.5321 9.77125 14.2421C7.20125 11.6721 7.20125 7.49205 9.77125 4.93205C12.3412 2.37205 16.5212 2.36205 19.0812 4.93205C20.3119 6.16936 21.0018 7.84403 20.9999 9.58912C20.9981 11.3342 20.3045 13.0074 19.0712 14.2421Z" fill="#3E3B6A"/>
<path d="M4.92869 9.75998C5.21869 9.46998 5.67869 9.46998 5.95869 9.75998C6.24869 10.05 6.24869 10.51 5.95869 10.79C3.95869 12.79 3.95869 16.04 5.95869 18.03C7.95869 20.02 11.2087 20.03 13.1987 18.03C15.1887 16.03 15.1987 12.78 13.1987 10.79C13.1298 10.7231 13.075 10.643 13.0377 10.5545C13.0003 10.4661 12.981 10.371 12.981 10.275C12.981 10.1789 13.0003 10.0839 13.0377 9.99542C13.075 9.90696 13.1298 9.8269 13.1987 9.75998C13.4887 9.46998 13.9487 9.46998 14.2287 9.75998C16.7987 12.33 16.7987 16.51 14.2287 19.07C11.6587 21.63 7.47869 21.64 4.91869 19.07C3.68809 17.8327 2.99813 16.158 3 14.4129C3.00188 12.6678 3.69543 10.9946 4.92869 9.75998Z" fill="#3E3B6A"/>
</svg>
