<svg width="24" height="24" viewBox="0 0 24 24" fill="none" xmlns="http://www.w3.org/2000/svg">
<path opacity="0.4" d="M17 20.5H7C4 20.5 2 19 2 15.5V8.5C2 5 4 3.5 7 3.5H17C20 3.5 22 5 22 8.5V15.5C22 19 20 20.5 17 20.5Z" fill="#3E3B6A"/>
<path d="M11.999 12.872C11.159 12.872 10.309 12.612 9.65901 12.082L6.52901 9.58205C6.38346 9.45567 6.29232 9.27797 6.27459 9.08603C6.25687 8.89408 6.31393 8.70271 6.43387 8.55181C6.55382 8.40091 6.72739 8.30214 6.91838 8.2761C7.10938 8.25007 7.30305 8.29876 7.45901 8.41205L10.589 10.912C11.349 11.522 12.639 11.522 13.399 10.912L16.529 8.41205C16.849 8.15205 17.329 8.20205 17.579 8.53205C17.839 8.85205 17.789 9.33205 17.459 9.58205L14.329 12.082C13.689 12.612 12.839 12.872 11.999 12.872Z" fill="#3E3B6A"/>
</svg>
