<svg width="15" height="15" viewBox="0 0 15 15" fill="none" xmlns="http://www.w3.org/2000/svg">
<path d="M13.169 3.26875C12.1628 3.16875 11.1565 3.09375 10.144 3.0375V3.03125L10.0065 2.21875C9.91278 1.64375 9.77528 0.78125 8.31278 0.78125H6.67528C5.21903 0.78125 5.08153 1.60625 4.98153 2.2125L4.85028 3.0125C4.26903 3.05 3.68778 3.0875 3.10653 3.14375L1.83153 3.26875C1.56903 3.29375 1.38153 3.525 1.40653 3.78125C1.43153 4.0375 1.65653 4.225 1.91903 4.2L3.19403 4.075C6.46903 3.75 9.76903 3.875 13.0815 4.20625H13.1315C13.369 4.20625 13.5753 4.025 13.6003 3.78125C13.6097 3.6564 13.5698 3.53283 13.4892 3.43703C13.4086 3.34123 13.2937 3.28082 13.169 3.26875Z" fill="white"/>
<path opacity="0.399" d="M12.0188 5.0875C11.8688 4.93125 11.6626 4.84375 11.4501 4.84375H3.55009C3.33759 4.84375 3.12509 4.93125 2.98134 5.0875C2.83759 5.24375 2.75634 5.45625 2.76884 5.675L3.15634 12.0875C3.22509 13.0375 3.31259 14.225 5.49384 14.225H9.50634C11.6876 14.225 11.7751 13.0437 11.8438 12.0875L12.2313 5.68125C12.2438 5.45625 12.1626 5.24375 12.0188 5.0875Z" fill="white"/>
<path fill-rule="evenodd" clip-rule="evenodd" d="M5.9875 10.625C5.9875 10.5007 6.03689 10.3815 6.12479 10.2935C6.2127 10.2056 6.33193 10.1562 6.45625 10.1562H8.5375C8.66182 10.1562 8.78105 10.2056 8.86896 10.2935C8.95686 10.3815 9.00625 10.5007 9.00625 10.625C9.00625 10.7493 8.95686 10.8685 8.86896 10.9565C8.78105 11.0444 8.66182 11.0938 8.5375 11.0938H6.45625C6.33193 11.0938 6.2127 11.0444 6.12479 10.9565C6.03689 10.8685 5.9875 10.7493 5.9875 10.625ZM5.46875 8.125C5.46875 8.00068 5.51814 7.88145 5.60604 7.79354C5.69395 7.70564 5.81318 7.65625 5.9375 7.65625H9.0625C9.18682 7.65625 9.30605 7.70564 9.39396 7.79354C9.48186 7.88145 9.53125 8.00068 9.53125 8.125C9.53125 8.24932 9.48186 8.36855 9.39396 8.45646C9.30605 8.54436 9.18682 8.59375 9.0625 8.59375H5.9375C5.81318 8.59375 5.69395 8.54436 5.60604 8.45646C5.51814 8.36855 5.46875 8.24932 5.46875 8.125Z" fill="white"/>
</svg>
