<svg width="20" height="20" viewBox="0 0 20 20" fill="none" xmlns="http://www.w3.org/2000/svg">
<path opacity="0.4" d="M10.0002 16.6668C11.7683 16.6668 13.464 15.9645 14.7142 14.7142C15.9645 13.464 16.6668 11.7683 16.6668 10.0002C16.6668 8.23205 15.9645 6.53636 14.7142 5.28612C13.464 4.03588 11.7683 3.3335 10.0002 3.3335C8.23205 3.3335 6.53636 4.03588 5.28612 5.28612C4.03588 6.53636 3.3335 8.23205 3.3335 10.0002C3.3335 11.7683 4.03588 13.464 5.28612 14.7142C6.53636 15.9645 8.23205 16.6668 10.0002 16.6668Z" fill="#3E3B6A"/>
<path d="M9.999 12.599C10.6886 12.599 11.3499 12.3251 11.8375 11.8375C12.3251 11.3499 12.599 10.6886 12.599 9.999C12.599 9.30944 12.3251 8.64812 11.8375 8.16053C11.3499 7.67293 10.6886 7.399 9.999 7.399C9.30944 7.399 8.64812 7.67293 8.16053 8.16053C7.67293 8.64812 7.399 9.30944 7.399 9.999C7.399 10.6886 7.67293 11.3499 8.16053 11.8375C8.64812 12.3251 9.30944 12.599 9.999 12.599ZM10.6248 1.6665V3.3665H10.6165C10.4165 3.3415 10.2082 3.33317 9.99984 3.33317C9.7915 3.33317 9.58317 3.3415 9.38317 3.3665H9.37484V1.6665C9.37484 1.32484 9.65817 1.0415 9.99984 1.0415C10.3415 1.0415 10.6248 1.32484 10.6248 1.6665ZM3.33317 9.99984C3.33317 10.2082 3.3415 10.4248 3.3665 10.6248H1.6665C1.32484 10.6248 1.0415 10.3415 1.0415 9.99984C1.0415 9.65817 1.32484 9.37484 1.6665 9.37484H3.3665C3.3415 9.57484 3.33317 9.7915 3.33317 9.99984ZM10.6248 16.6332V18.3332C10.6248 18.6748 10.3415 18.9582 9.99984 18.9582C9.65817 18.9582 9.37484 18.6748 9.37484 18.3332V16.6332H9.38317C9.58317 16.6582 9.7915 16.6665 9.99984 16.6665C10.2082 16.6665 10.4165 16.6582 10.6165 16.6332H10.6248ZM18.9582 9.99984C18.9582 10.3415 18.6748 10.6248 18.3332 10.6248H16.6332C16.6582 10.4248 16.6665 10.2082 16.6665 9.99984C16.6665 9.7915 16.6582 9.57484 16.6332 9.37484H18.3332C18.6748 9.37484 18.9582 9.65817 18.9582 9.99984Z" fill="#3E3B6A"/>
</svg>
