<svg width="20" height="20" viewBox="0 0 20 20" fill="none" xmlns="http://www.w3.org/2000/svg">
<path opacity="0.4" d="M15.9334 7.60013C15.6084 7.60013 15.3501 7.85846 15.3501 8.18346V9.50013C15.3501 12.4501 12.9501 14.8501 10.0001 14.8501C7.05007 14.8501 4.65007 12.4501 4.65007 9.50013V8.17513C4.65007 7.85013 4.39173 7.5918 4.06673 7.5918C3.74173 7.5918 3.4834 7.85013 3.4834 8.17513V9.4918C3.4834 12.8835 6.09173 15.6751 9.41673 15.9751V17.7501C9.41673 18.0751 9.67507 18.3335 10.0001 18.3335C10.3251 18.3335 10.5834 18.0751 10.5834 17.7501V15.9751C13.9001 15.6835 16.5167 12.8835 16.5167 9.4918V8.17513C16.5131 8.02235 16.4502 7.87697 16.3413 7.76968C16.2325 7.66239 16.0862 7.6016 15.9334 7.60013Z" fill="#3E3B6A"/>
<path d="M9.99827 1.6665C7.96494 1.6665 6.31494 3.3165 6.31494 5.34984V9.6165C6.31494 11.6498 7.96494 13.2998 9.99827 13.2998C12.0316 13.2998 13.6816 11.6498 13.6816 9.6165V5.34984C13.6816 3.3165 12.0316 1.6665 9.99827 1.6665ZM11.0899 7.45817C11.0316 7.67484 10.8399 7.8165 10.6233 7.8165C10.5816 7.8165 10.5399 7.80817 10.4983 7.79984C10.1733 7.70817 9.83161 7.70817 9.50661 7.79984C9.23994 7.87484 8.98161 7.7165 8.91494 7.45817C8.83994 7.19984 8.99827 6.93317 9.25661 6.8665C9.74827 6.73317 10.2649 6.73317 10.7566 6.8665C11.0066 6.93317 11.1566 7.19984 11.0899 7.45817ZM11.5316 5.8415C11.4972 5.93513 11.4347 6.01582 11.3527 6.07251C11.2706 6.12921 11.173 6.15913 11.0733 6.15817C11.0149 6.15817 10.9649 6.14984 10.9066 6.13317C10.3233 5.9165 9.67327 5.9165 9.08994 6.13317C8.96833 6.17629 8.83464 6.16987 8.71772 6.11531C8.6008 6.06074 8.51001 5.96241 8.46494 5.8415C8.37327 5.5915 8.50661 5.30817 8.75661 5.22484C9.55869 4.93317 10.4379 4.93317 11.2399 5.22484C11.4899 5.3165 11.6233 5.5915 11.5316 5.8415Z" fill="#3E3B6A"/>
</svg>
