<svg width="13" height="8" viewBox="0 0 13 8" fill="none" xmlns="http://www.w3.org/2000/svg">
<path d="M3.47292 0.766602L0.68125 3.55827C0.439583 3.79994 0.439583 4.19993 0.68125 4.4416L3.47292 7.23327C3.71458 7.47494 4.11458 7.47494 4.35625 7.23327C4.59792 6.9916 4.59792 6.5916 4.35625 6.34993L2.63125 4.62493H11.5396C11.8813 4.62493 12.1646 4.3416 12.1646 3.99993C12.1646 3.65827 11.8813 3.37493 11.5396 3.37493H2.63125L4.35625 1.64994C4.48125 1.52494 4.53958 1.3666 4.53958 1.20827C4.53958 1.04993 4.48125 0.883268 4.35625 0.766602C4.11458 0.516602 3.72292 0.516602 3.47292 0.766602Z" fill="#FF0059"/>
</svg>
