<svg width="187" height="211" viewBox="0 0 187 211" fill="none" xmlns="http://www.w3.org/2000/svg">
<path d="M100.708 51.3917L99.3333 51.7167C99.025 51.7917 98.7833 52.0251 98.7167 52.3334L98.425 53.5584C98.2667 54.2251 97.4167 54.4334 96.975 53.9084L94.4833 51.0417C94.437 50.9884 94.405 50.9241 94.3903 50.8549C94.3757 50.7857 94.379 50.7139 94.3999 50.6463C94.4207 50.5788 94.4585 50.5176 94.5095 50.4687C94.5606 50.4198 94.6233 50.3847 94.6917 50.3667C96.1709 50.0071 97.4948 49.1801 98.4667 48.0084C98.625 47.8167 98.9083 47.7917 99.0833 47.9667L100.933 49.8167C101.567 50.4501 101.342 51.2417 100.708 51.3917ZM85.25 51.3917L86.625 51.7167C86.9333 51.7917 87.175 52.0251 87.2417 52.3334L87.5333 53.5584C87.6917 54.2251 88.5417 54.4334 88.9833 53.9084L91.475 51.0417C91.675 50.8084 91.5667 50.4417 91.2667 50.3667C89.7874 50.0071 88.4636 49.1801 87.4917 48.0084C87.4557 47.9626 87.4105 47.9248 87.359 47.8976C87.3074 47.8703 87.2508 47.8542 87.1926 47.8503C87.1345 47.8464 87.0762 47.8547 87.0214 47.8748C86.9667 47.8948 86.9168 47.9262 86.875 47.9667L85.025 49.8167C84.3917 50.4501 84.6167 51.2417 85.25 51.3917ZM93 37.6667C89.775 37.6667 87.1667 40.2751 87.1667 43.5001C87.1667 44.7084 87.525 45.8167 88.1417 46.7417C88.5936 47.4157 89.1813 47.9877 89.8673 48.4211C90.5533 48.8545 91.3223 49.1397 92.125 49.2584C92.4083 49.3084 92.7 49.3334 93 49.3334C93.3 49.3334 93.5917 49.3084 93.875 49.2584C95.5333 49.0167 96.9583 48.0751 97.8583 46.7417C98.4981 45.782 98.8375 44.6535 98.8333 43.5001C98.8333 40.2751 96.225 37.6667 93 37.6667ZM95.55 43.3167L94.8583 44.0084C94.7417 44.1251 94.675 44.3501 94.7167 44.5167L94.9167 45.3751C95.075 46.0501 94.7167 46.3167 94.1167 45.9584L93.2833 45.4667C93.1987 45.4216 93.1043 45.398 93.0083 45.398C92.9124 45.398 92.818 45.4216 92.7333 45.4667L91.9 45.9584C91.3 46.3084 90.9417 46.0501 91.1 45.3751L91.3 44.5167C91.3333 44.3584 91.275 44.1251 91.1583 44.0084L90.45 43.3167C90.0417 42.9084 90.175 42.5001 90.7417 42.4084L91.6333 42.2584C91.7833 42.2334 91.9583 42.1001 92.025 41.9667L92.5167 40.9834C92.7833 40.4501 93.2167 40.4501 93.4833 40.9834L93.975 41.9667C94.0417 42.1001 94.2167 42.2334 94.375 42.2584L95.2667 42.4084C95.825 42.5001 95.9583 42.9084 95.55 43.3167Z" fill="#455A64"/>
<path d="M58.125 149.875V148.75H60.375V144.25H59.25V143.125H60.375V142H62.625V148.75H64.875V149.875H58.125ZM67.125 149.875V148.75H70.5V147.625H71.625V146.5H67.125V145.375H66V143.125H67.125V142H72.75V143.125H73.875V147.625H72.75V148.75H71.625V149.875H67.125ZM68.25 145.375H71.625V143.125H68.25V145.375ZM86.25 149.875V148.75H85.125V147.625H84V144.25H85.125V143.125H86.25V142H91.875V143.125H87.375V144.25H86.25V147.625H87.375V148.75H89.625V146.5H88.5V145.375H91.875V149.875H86.25ZM94.125 149.875V148.75H93V147.625H94.125V146.5H98.625V145.375H94.125V144.25H99.75V145.375H100.875V149.875H94.125ZM95.25 148.75H98.625V147.625H95.25V148.75ZM102 149.875V144.25H108.75V145.375H109.875V149.875H107.625V145.375H106.5V149.875H104.25V145.375H103.125V149.875H102ZM112.125 149.875V148.75H111V145.375H112.125V144.25H117.75V145.375H118.875V147.625H113.25V148.75H117.75V149.875H112.125ZM113.25 146.5H116.625V145.375H113.25V146.5ZM120 149.875V148.75H125.625V147.625H121.125V146.5H120V145.375H121.125V144.25H126.75V145.375H122.25V146.5H126.75V147.625H127.875V148.75H126.75V149.875H120Z" fill="#455A64"/>
<rect x="72" y="156" width="43" height="37" fill="#FFC107"/>
<path fill-rule="evenodd" clip-rule="evenodd" d="M158 156H115V189.742L158 162.701V156ZM118 193L115 191.8V193H118Z" fill="#FF3D00"/>
<path fill-rule="evenodd" clip-rule="evenodd" d="M72 156H29V163.043L72 186.226V156Z" fill="#455A64"/>
<mask id="path-6-outside-1_2436_3781" maskUnits="userSpaceOnUse" x="0" y="0" width="187" height="211" fill="black">
<rect fill="white" width="187" height="211"/>
<path fill-rule="evenodd" clip-rule="evenodd" d="M88.2676 6.18605L11.4366 50.4898C9.3024 51.2671 5.03401 54.9202 5.03401 63.3146V149.59C4.84 151.728 5.38324 156.586 9.10838 158.917C12.8335 161.249 63.4333 190.591 88.2676 204.97C90.2077 205.747 95.0194 206.835 98.7445 204.97C102.47 203.105 152.681 173.491 177.322 158.917C178.874 157.946 181.978 154.72 181.978 149.59V60.9828C182.172 58.651 181.163 53.2879 175.575 50.4898C169.988 47.6917 122.027 19.7881 98.7445 6.18605C96.8043 5.29103 91.9927 4.038 88.2676 6.18605ZM89 20L23 58C21.1666 58.6666 17.5 61.8 17.5 69V143C17.3333 144.833 17.8 149 21 151C24.2 153 67.6666 178.167 89 190.5C90.6667 191.167 94.8 192.1 98 190.5C101.2 188.9 144.333 163.5 165.5 151C166.833 150.167 169.5 147.4 169.5 143V67C169.667 65 168.8 60.4 164 58C159.2 55.6 118 31.6666 98 20C96.3333 19.2323 92.2 18.1575 89 20Z"/>
</mask>
<path fill-rule="evenodd" clip-rule="evenodd" d="M88.2676 6.18605L11.4366 50.4898C9.3024 51.2671 5.03401 54.9202 5.03401 63.3146V149.59C4.84 151.728 5.38324 156.586 9.10838 158.917C12.8335 161.249 63.4333 190.591 88.2676 204.97C90.2077 205.747 95.0194 206.835 98.7445 204.97C102.47 203.105 152.681 173.491 177.322 158.917C178.874 157.946 181.978 154.72 181.978 149.59V60.9828C182.172 58.651 181.163 53.2879 175.575 50.4898C169.988 47.6917 122.027 19.7881 98.7445 6.18605C96.8043 5.29103 91.9927 4.038 88.2676 6.18605ZM89 20L23 58C21.1666 58.6666 17.5 61.8 17.5 69V143C17.3333 144.833 17.8 149 21 151C24.2 153 67.6666 178.167 89 190.5C90.6667 191.167 94.8 192.1 98 190.5C101.2 188.9 144.333 163.5 165.5 151C166.833 150.167 169.5 147.4 169.5 143V67C169.667 65 168.8 60.4 164 58C159.2 55.6 118 31.6666 98 20C96.3333 19.2323 92.2 18.1575 89 20Z" fill="#455A64"/>
<path d="M11.4366 50.4898L13.1476 55.1879L13.5569 55.0389L13.9343 54.8213L11.4366 50.4898ZM88.2676 6.18605L90.7652 10.5175L90.7653 10.5175L88.2676 6.18605ZM5.03401 149.59L10.0135 150.042L10.034 149.817V149.59H5.03401ZM9.10838 158.917L6.45546 163.156L6.45547 163.156L9.10838 158.917ZM88.2676 204.97L85.7622 209.297L86.0738 209.477L86.4082 209.611L88.2676 204.97ZM98.7445 204.97L100.983 209.441L100.983 209.441L98.7445 204.97ZM177.322 158.917L179.867 163.221L179.921 163.189L179.975 163.156L177.322 158.917ZM181.978 60.9828L176.995 60.5682L176.978 60.7751V60.9828H181.978ZM175.575 50.4898L173.337 54.9606L173.337 54.9606L175.575 50.4898ZM98.7445 6.18605L101.267 1.86884L101.058 1.74701L100.839 1.64585L98.7445 6.18605ZM23 58L24.7087 62.6989L25.1177 62.5502L25.4948 62.3331L23 58ZM89 20L86.5052 15.6668L86.5052 15.6668L89 20ZM17.5 143L22.4794 143.453L22.5 143.227V143H17.5ZM21 151L23.65 146.76L23.65 146.76L21 151ZM89 190.5L86.4975 194.829L86.8089 195.009L87.143 195.142L89 190.5ZM165.5 151L168.043 155.305L168.097 155.273L168.15 155.24L165.5 151ZM169.5 67L164.517 66.5847L164.5 66.792V67H169.5ZM98 20L100.519 15.6811L100.311 15.5595L100.092 15.4585L98 20ZM13.9343 54.8213L90.7652 10.5175L85.7699 1.85459L8.9389 46.1583L13.9343 54.8213ZM10.034 63.3146C10.034 56.7206 13.2569 55.1481 13.1476 55.1879L9.72557 45.7917C5.34787 47.386 0.034013 53.1197 0.034013 63.3146H10.034ZM10.034 149.59V63.3146H0.034013V149.59H10.034ZM11.7613 154.679C11.1851 154.319 10.6932 153.669 10.3559 152.633C10.0074 151.563 9.97203 150.5 10.0135 150.042L0.0544845 149.138C-0.0980208 150.818 0.0412182 153.253 0.847084 155.729C1.66427 158.239 3.3065 161.184 6.45546 163.156L11.7613 154.679ZM90.7729 200.643C65.8564 186.216 15.3895 156.95 11.7613 154.679L6.45547 163.156C10.2776 165.548 61.0102 194.965 85.7622 209.297L90.7729 200.643ZM96.5057 200.499C95.7278 200.889 94.5857 201.073 93.1917 200.974C91.8155 200.876 90.6341 200.532 90.1269 200.329L86.4082 209.611C87.8412 210.185 90.0357 210.774 92.4817 210.948C94.9099 211.121 98.0361 210.917 100.983 209.441L96.5057 200.499ZM174.776 154.614C149.968 169.287 100.023 198.738 96.5057 200.499L100.983 209.441C104.916 207.471 155.394 177.695 179.867 163.221L174.776 154.614ZM176.978 149.59C176.978 151.107 176.527 152.297 175.979 153.184C175.7 153.635 175.4 154 175.135 154.27C175.003 154.404 174.888 154.507 174.799 154.58C174.707 154.656 174.66 154.685 174.669 154.679L179.975 163.156C182.664 161.472 186.978 156.793 186.978 149.59H176.978ZM176.978 60.9828V149.59H186.978V60.9828H176.978ZM173.337 54.9606C176.591 56.5903 177.072 59.6425 176.995 60.5682L186.961 61.3974C187.272 57.6595 185.735 49.9855 177.814 46.019L173.337 54.9606ZM96.2223 10.5033C119.365 24.0241 167.558 52.067 173.337 54.9606L177.814 46.019C172.417 43.3164 124.688 15.5521 101.267 1.86884L96.2223 10.5033ZM90.7653 10.5175C91.4569 10.1187 92.4721 9.92207 93.767 10.0282C95.0609 10.1342 96.1803 10.5095 96.6501 10.7263L100.839 1.64585C99.3686 0.967552 97.112 0.268815 94.5838 0.0616068C92.0565 -0.145528 88.8033 0.105391 85.7699 1.85459L90.7653 10.5175ZM25.4948 62.3331L91.4948 24.3331L86.5052 15.6668L20.5052 53.6668L25.4948 62.3331ZM22.5 69C22.5 63.6051 25.1169 62.5505 24.7087 62.6989L21.2913 53.301C17.2164 54.7828 12.5 59.9948 12.5 69H22.5ZM22.5 143V69H12.5V143H22.5ZM23.65 146.76C23.3365 146.564 22.9962 146.17 22.7412 145.388C22.4747 144.57 22.4518 143.757 22.4794 143.453L12.5205 142.547C12.3815 144.076 12.5086 146.263 13.2338 148.487C13.9704 150.747 15.4634 153.436 18.35 155.24L23.65 146.76ZM91.5025 186.171C70.0869 173.79 26.753 148.699 23.65 146.76L18.35 155.24C21.6469 157.301 65.2464 182.543 86.4975 194.829L91.5025 186.171ZM95.7639 186.028C95.2476 186.286 94.405 186.443 93.2794 186.363C92.1719 186.284 91.2278 186.006 90.857 185.858L87.143 195.142C88.4388 195.661 90.3947 196.183 92.5706 196.337C94.7284 196.491 97.5524 196.314 100.236 194.972L95.7639 186.028ZM162.957 146.695C141.623 159.294 98.7565 184.532 95.7639 186.028L100.236 194.972C103.644 193.268 147.043 167.706 168.043 155.305L162.957 146.695ZM164.5 143C164.5 144.15 164.16 145.042 163.749 145.705C163.294 146.439 162.828 146.774 162.85 146.76L168.15 155.24C170.619 153.697 174.5 149.476 174.5 143H164.5ZM164.5 67V143H174.5V67H164.5ZM161.764 62.4721C163.053 63.1164 163.714 63.9789 164.084 64.7699C164.28 65.189 164.399 65.6023 164.463 65.9593C164.494 66.1359 164.509 66.2866 164.515 66.4031C164.522 66.523 164.517 66.5848 164.517 66.5847L174.483 67.4152C174.767 64.0048 173.369 57.0943 166.236 53.5278L161.764 62.4721ZM95.4806 24.3189C115.342 35.9045 156.773 59.9768 161.764 62.4721L166.236 53.5278C161.627 51.2231 120.658 27.4288 100.519 15.6811L95.4806 24.3189ZM91.4948 24.3331C91.9248 24.0855 92.6406 23.9205 93.6672 24.0045C94.6927 24.0884 95.5748 24.3878 95.9082 24.5414L100.092 15.4585C98.7585 14.8444 96.7406 14.2226 94.4828 14.0378C92.2261 13.8532 89.2752 14.072 86.5052 15.6668L91.4948 24.3331Z" fill="white" mask="url(#path-6-outside-1_2436_3781)"/>
</svg>
