<svg width="187" height="211" viewBox="0 0 187 211" fill="none" xmlns="http://www.w3.org/2000/svg">
<path d="M90.7083 51.3915L89.3333 51.7165C89.025 51.7915 88.7833 52.0248 88.7167 52.3332L88.425 53.5582C88.2667 54.2248 87.4167 54.4332 86.975 53.9082L84.4833 51.0415C84.437 50.9881 84.405 50.9238 84.3903 50.8546C84.3757 50.7854 84.379 50.7137 84.3999 50.6461C84.4207 50.5785 84.4585 50.5174 84.5095 50.4685C84.5606 50.4195 84.6233 50.3844 84.6917 50.3665C86.1709 50.0069 87.4948 49.1799 88.4667 48.0082C88.625 47.8165 88.9083 47.7915 89.0833 47.9665L90.9333 49.8165C91.5667 50.4498 91.3417 51.2415 90.7083 51.3915ZM75.25 51.3915L76.625 51.7165C76.9333 51.7915 77.175 52.0248 77.2417 52.3332L77.5333 53.5582C77.6917 54.2248 78.5417 54.4332 78.9833 53.9082L81.475 51.0415C81.675 50.8082 81.5667 50.4415 81.2667 50.3665C79.7874 50.0069 78.4636 49.1799 77.4917 48.0082C77.4557 47.9623 77.4105 47.9246 77.359 47.8973C77.3074 47.8701 77.2508 47.854 77.1926 47.8501C77.1345 47.8461 77.0762 47.8545 77.0214 47.8745C76.9667 47.8946 76.9168 47.9259 76.875 47.9665L75.025 49.8165C74.3917 50.4498 74.6167 51.2415 75.25 51.3915ZM83 37.6665C79.775 37.6665 77.1667 40.2748 77.1667 43.4998C77.1667 44.7082 77.525 45.8165 78.1417 46.7415C78.5936 47.4155 79.1813 47.9875 79.8673 48.4209C80.5533 48.8543 81.3223 49.1395 82.125 49.2582C82.4083 49.3082 82.7 49.3332 83 49.3332C83.3 49.3332 83.5917 49.3082 83.875 49.2582C85.5333 49.0165 86.9583 48.0748 87.8583 46.7415C88.4981 45.7818 88.8375 44.6532 88.8333 43.4998C88.8333 40.2748 86.225 37.6665 83 37.6665ZM85.55 43.3165L84.8583 44.0082C84.7417 44.1248 84.675 44.3498 84.7167 44.5165L84.9167 45.3748C85.075 46.0498 84.7167 46.3165 84.1167 45.9582L83.2833 45.4665C83.1987 45.4213 83.1043 45.3977 83.0083 45.3977C82.9124 45.3977 82.818 45.4213 82.7333 45.4665L81.9 45.9582C81.3 46.3082 80.9417 46.0498 81.1 45.3748L81.3 44.5165C81.3333 44.3582 81.275 44.1248 81.1583 44.0082L80.45 43.3165C80.0417 42.9082 80.175 42.4998 80.7417 42.4082L81.6333 42.2582C81.7833 42.2332 81.9583 42.0998 82.025 41.9665L82.5167 40.9832C82.7833 40.4498 83.2167 40.4498 83.4833 40.9832L83.975 41.9665C84.0417 42.0998 84.2167 42.2332 84.375 42.2582L85.2667 42.4082C85.825 42.4998 85.9583 42.9082 85.55 43.3165Z" fill="#3F51B5"/>
<path d="M110.708 51.3915L109.333 51.7165C109.025 51.7915 108.783 52.0248 108.717 52.3332L108.425 53.5582C108.267 54.2248 107.417 54.4332 106.975 53.9082L104.483 51.0415C104.437 50.9881 104.405 50.9238 104.39 50.8546C104.376 50.7854 104.379 50.7137 104.4 50.6461C104.421 50.5785 104.458 50.5174 104.51 50.4685C104.561 50.4195 104.623 50.3844 104.692 50.3665C106.171 50.0069 107.495 49.1799 108.467 48.0082C108.625 47.8165 108.908 47.7915 109.083 47.9665L110.933 49.8165C111.567 50.4498 111.342 51.2415 110.708 51.3915ZM95.25 51.3915L96.625 51.7165C96.9333 51.7915 97.175 52.0248 97.2417 52.3332L97.5333 53.5582C97.6917 54.2248 98.5417 54.4332 98.9833 53.9082L101.475 51.0415C101.675 50.8082 101.567 50.4415 101.267 50.3665C99.7874 50.0069 98.4636 49.1799 97.4917 48.0082C97.4557 47.9623 97.4105 47.9246 97.359 47.8973C97.3074 47.8701 97.2508 47.854 97.1926 47.8501C97.1345 47.8461 97.0762 47.8545 97.0214 47.8745C96.9667 47.8946 96.9168 47.9259 96.875 47.9665L95.025 49.8165C94.3917 50.4498 94.6167 51.2415 95.25 51.3915ZM103 37.6665C99.775 37.6665 97.1667 40.2748 97.1667 43.4998C97.1667 44.7082 97.525 45.8165 98.1417 46.7415C98.5936 47.4155 99.1813 47.9875 99.8673 48.4209C100.553 48.8543 101.322 49.1395 102.125 49.2582C102.408 49.3082 102.7 49.3332 103 49.3332C103.3 49.3332 103.592 49.3082 103.875 49.2582C105.533 49.0165 106.958 48.0748 107.858 46.7415C108.498 45.7818 108.838 44.6532 108.833 43.4998C108.833 40.2748 106.225 37.6665 103 37.6665ZM105.55 43.3165L104.858 44.0082C104.742 44.1248 104.675 44.3498 104.717 44.5165L104.917 45.3748C105.075 46.0498 104.717 46.3165 104.117 45.9582L103.283 45.4665C103.199 45.4213 103.104 45.3977 103.008 45.3977C102.912 45.3977 102.818 45.4213 102.733 45.4665L101.9 45.9582C101.3 46.3082 100.942 46.0498 101.1 45.3748L101.3 44.5165C101.333 44.3582 101.275 44.1248 101.158 44.0082L100.45 43.3165C100.042 42.9082 100.175 42.4998 100.742 42.4082L101.633 42.2582C101.783 42.2332 101.958 42.0998 102.025 41.9665L102.517 40.9832C102.783 40.4498 103.217 40.4498 103.483 40.9832L103.975 41.9665C104.042 42.0998 104.217 42.2332 104.375 42.2582L105.267 42.4082C105.825 42.4998 105.958 42.9082 105.55 43.3165Z" fill="#3F51B5"/>
<path d="M52 149.875V147.625H53.125V146.5H54.25V145.375H56.5V144.25H57.625V143.125H54.25V144.25H52V143.125H53.125V142H58.75V143.125H59.875V145.375H58.75V146.5H57.625V147.625H55.375V148.75H59.875V149.875H52ZM62.125 149.875V148.75H64.375V144.25H63.25V143.125H64.375V142H66.625V148.75H68.875V149.875H62.125ZM79 149.875V142H86.875V143.125H81.25V145.375H85.75V146.5H81.25V149.875H79ZM91.375 145.375H92.5V146.5H91.375V149.875H89.125V144.25H91.375V145.375ZM95.875 144.25V145.375H92.5V144.25H95.875ZM100.375 143.125V142H102.625V143.125H100.375ZM98.125 149.875V148.75H100.375V145.375H99.25V144.25H102.625V148.75H104.875V149.875H98.125ZM107.125 149.875V148.75H106V145.375H107.125V144.25H112.75V145.375H113.875V147.625H108.25V148.75H112.75V149.875H107.125ZM108.25 146.5H111.625V145.375H108.25V146.5ZM115 149.875V144.25H121.75V145.375H122.875V149.875H120.625V145.375H117.25V149.875H115ZM125.125 149.875V148.75H124V145.375H125.125V144.25H129.625V142H131.875V149.875H125.125ZM126.25 148.75H129.625V145.375H126.25V148.75ZM133 149.875V148.75H138.625V147.625H134.125V146.5H133V145.375H134.125V144.25H139.75V145.375H135.25V146.5H139.75V147.625H140.875V148.75H139.75V149.875H133Z" fill="#3F51B5"/>
<rect x="26" y="156" width="135" height="12" fill="#E0E1E2"/>
<rect x="46" y="168" width="95" height="12" fill="#3F51B5"/>
<rect x="66" y="180" width="55" height="12" fill="#FF3D00"/>
<mask id="path-7-outside-1_2436_3784" maskUnits="userSpaceOnUse" x="0" y="0" width="187" height="211" fill="black">
<rect fill="white" width="187" height="211"/>
<path fill-rule="evenodd" clip-rule="evenodd" d="M88.2676 6.18605L11.4366 50.4898C9.3024 51.2671 5.03401 54.9202 5.03401 63.3146V149.59C4.84 151.728 5.38324 156.586 9.10838 158.917C12.8335 161.249 63.4333 190.591 88.2676 204.97C90.2077 205.747 95.0194 206.835 98.7445 204.97C102.47 203.105 152.681 173.491 177.322 158.917C178.874 157.946 181.978 154.72 181.978 149.59V60.9828C182.172 58.651 181.163 53.2879 175.575 50.4898C169.988 47.6917 122.027 19.7881 98.7445 6.18605C96.8043 5.29103 91.9927 4.038 88.2676 6.18605ZM89 20L23 58C21.1666 58.6666 17.5 61.8 17.5 69V143C17.3333 144.833 17.8 149 21 151C24.2 153 67.6666 178.167 89 190.5C90.6666 191.167 94.8 192.1 98 190.5C101.2 188.9 144.333 163.5 165.5 151C166.833 150.167 169.5 147.4 169.5 143V67C169.667 65 168.8 60.4 164 58C159.2 55.6 118 31.6666 98 20C96.3333 19.2323 92.2 18.1575 89 20Z"/>
</mask>
<path fill-rule="evenodd" clip-rule="evenodd" d="M88.2676 6.18605L11.4366 50.4898C9.3024 51.2671 5.03401 54.9202 5.03401 63.3146V149.59C4.84 151.728 5.38324 156.586 9.10838 158.917C12.8335 161.249 63.4333 190.591 88.2676 204.97C90.2077 205.747 95.0194 206.835 98.7445 204.97C102.47 203.105 152.681 173.491 177.322 158.917C178.874 157.946 181.978 154.72 181.978 149.59V60.9828C182.172 58.651 181.163 53.2879 175.575 50.4898C169.988 47.6917 122.027 19.7881 98.7445 6.18605C96.8043 5.29103 91.9927 4.038 88.2676 6.18605ZM89 20L23 58C21.1666 58.6666 17.5 61.8 17.5 69V143C17.3333 144.833 17.8 149 21 151C24.2 153 67.6666 178.167 89 190.5C90.6666 191.167 94.8 192.1 98 190.5C101.2 188.9 144.333 163.5 165.5 151C166.833 150.167 169.5 147.4 169.5 143V67C169.667 65 168.8 60.4 164 58C159.2 55.6 118 31.6666 98 20C96.3333 19.2323 92.2 18.1575 89 20Z" fill="#3F51B5"/>
<path d="M11.4366 50.4898L13.1476 55.1879L13.5569 55.0389L13.9343 54.8213L11.4366 50.4898ZM88.2676 6.18605L90.7653 10.5175V10.5175L88.2676 6.18605ZM5.03401 149.59L10.0135 150.042L10.034 149.817V149.59H5.03401ZM9.10838 158.917L6.45546 163.156H6.45547L9.10838 158.917ZM88.2676 204.97L85.7622 209.297L86.0739 209.477L86.4082 209.611L88.2676 204.97ZM98.7445 204.97L100.983 209.441H100.983L98.7445 204.97ZM177.322 158.917L179.867 163.221L179.921 163.189L179.975 163.156L177.322 158.917ZM181.978 60.9828L176.995 60.5682L176.978 60.7751V60.9828H181.978ZM175.575 50.4898L173.337 54.9606L175.575 50.4898ZM98.7445 6.18605L101.267 1.86884L101.058 1.74701L100.839 1.64585L98.7445 6.18605ZM23 58L24.7087 62.6989L25.1177 62.5502L25.4948 62.3331L23 58ZM89 20L86.5052 15.6668L86.5052 15.6668L89 20ZM17.5 143L22.4794 143.453L22.5 143.227V143H17.5ZM21 151L23.65 146.76H23.65L21 151ZM89 190.5L86.4975 194.829L86.8089 195.009L87.143 195.142L89 190.5ZM165.5 151L168.042 155.305L168.097 155.273L168.15 155.24L165.5 151ZM169.5 67L164.517 66.5847L164.5 66.792V67H169.5ZM98 20L100.519 15.6811L100.311 15.5595L100.092 15.4585L98 20ZM13.9343 54.8213L90.7653 10.5175L85.7699 1.85459L8.9389 46.1583L13.9343 54.8213ZM10.034 63.3146C10.034 56.7206 13.2569 55.1481 13.1476 55.1879L9.72557 45.7917C5.34787 47.386 0.0340128 53.1197 0.0340128 63.3146H10.034ZM10.034 149.59V63.3146H0.0340128V149.59H10.034ZM11.7613 154.679C11.1851 154.319 10.6932 153.669 10.3559 152.633C10.0074 151.563 9.97203 150.5 10.0135 150.042L0.0544844 149.138C-0.098021 150.818 0.0412183 153.253 0.847085 155.729C1.66427 158.239 3.3065 161.184 6.45546 163.156L11.7613 154.679ZM90.7729 200.643C65.8564 186.216 15.3895 156.95 11.7613 154.679L6.45547 163.156C10.2776 165.548 61.0102 194.965 85.7622 209.297L90.7729 200.643ZM96.5057 200.499C95.7278 200.889 94.5857 201.073 93.1917 200.974C91.8156 200.876 90.6341 200.532 90.1269 200.329L86.4082 209.611C87.8412 210.185 90.0357 210.774 92.4817 210.948C94.9099 211.121 98.0361 210.917 100.983 209.441L96.5057 200.499ZM174.776 154.614C149.968 169.287 100.023 198.738 96.5057 200.499L100.983 209.441C104.916 207.471 155.394 177.695 179.867 163.221L174.776 154.614ZM176.978 149.59C176.978 151.107 176.527 152.297 175.979 153.184C175.7 153.635 175.4 154 175.135 154.27C175.003 154.404 174.888 154.507 174.799 154.58C174.707 154.656 174.66 154.685 174.669 154.679L179.975 163.156C182.664 161.472 186.978 156.793 186.978 149.59H176.978ZM176.978 60.9828V149.59H186.978V60.9828H176.978ZM173.337 54.9606C176.591 56.5903 177.072 59.6425 176.995 60.5682L186.961 61.3974C187.272 57.6595 185.735 49.9855 177.814 46.019L173.337 54.9606ZM96.2223 10.5033C119.365 24.0241 167.558 52.067 173.337 54.9606L177.814 46.019C172.417 43.3164 124.688 15.5521 101.267 1.86884L96.2223 10.5033ZM90.7653 10.5175C91.4569 10.1187 92.4721 9.92207 93.767 10.0282C95.0609 10.1342 96.1803 10.5095 96.6501 10.7263L100.839 1.64585C99.3686 0.967552 97.112 0.268815 94.5838 0.0616069C92.0565 -0.145528 88.8033 0.105391 85.7699 1.85459L90.7653 10.5175ZM25.4948 62.3331L91.4948 24.3331L86.5052 15.6668L20.5052 53.6668L25.4948 62.3331ZM22.5 69C22.5 63.6051 25.1169 62.5505 24.7087 62.6989L21.2913 53.301C17.2164 54.7828 12.5 59.9948 12.5 69H22.5ZM22.5 143V69H12.5V143H22.5ZM23.65 146.76C23.3365 146.564 22.9962 146.17 22.7412 145.388C22.4747 144.57 22.4518 143.757 22.4794 143.453L12.5205 142.547C12.3815 144.076 12.5086 146.263 13.2338 148.487C13.9704 150.747 15.4634 153.436 18.35 155.24L23.65 146.76ZM91.5025 186.171C70.0869 173.79 26.753 148.699 23.65 146.76L18.35 155.24C21.6469 157.301 65.2464 182.543 86.4975 194.829L91.5025 186.171ZM95.7639 186.028C95.2476 186.286 94.405 186.443 93.2794 186.363C92.1719 186.284 91.2278 186.006 90.857 185.858L87.143 195.142C88.4388 195.661 90.3947 196.183 92.5706 196.337C94.7283 196.491 97.5524 196.314 100.236 194.972L95.7639 186.028ZM162.957 146.695C141.623 159.294 98.7565 184.532 95.7639 186.028L100.236 194.972C103.644 193.268 147.043 167.706 168.042 155.305L162.957 146.695ZM164.5 143C164.5 144.15 164.16 145.042 163.749 145.705C163.294 146.439 162.828 146.774 162.85 146.76L168.15 155.24C170.619 153.697 174.5 149.476 174.5 143H164.5ZM164.5 67V143H174.5V67H164.5ZM161.764 62.4721C163.053 63.1164 163.714 63.9789 164.084 64.7699C164.28 65.189 164.399 65.6023 164.463 65.9593C164.494 66.1359 164.509 66.2866 164.515 66.4031C164.522 66.523 164.517 66.5848 164.517 66.5847L174.483 67.4152C174.767 64.0048 173.369 57.0943 166.236 53.5278L161.764 62.4721ZM95.4806 24.3189C115.342 35.9045 156.773 59.9768 161.764 62.4721L166.236 53.5278C161.627 51.2231 120.658 27.4288 100.519 15.6811L95.4806 24.3189ZM91.4948 24.3331C91.9248 24.0855 92.6406 23.9205 93.6672 24.0045C94.6927 24.0884 95.5748 24.3878 95.9082 24.5414L100.092 15.4585C98.7585 14.8444 96.7406 14.2226 94.4828 14.0378C92.2261 13.8532 89.2752 14.072 86.5052 15.6668L91.4948 24.3331Z" fill="white" mask="url(#path-7-outside-1_2436_3784)"/>
</svg>
