<svg width="187" height="211" viewBox="0 0 187 211" fill="none" xmlns="http://www.w3.org/2000/svg">
<path d="M80.7083 51.3915L79.3333 51.7165C79.025 51.7915 78.7833 52.0248 78.7167 52.3332L78.425 53.5582C78.2667 54.2248 77.4167 54.4332 76.975 53.9082L74.4833 51.0415C74.437 50.9881 74.405 50.9238 74.3903 50.8546C74.3757 50.7854 74.379 50.7137 74.3999 50.6461C74.4207 50.5785 74.4585 50.5174 74.5095 50.4685C74.5606 50.4195 74.6233 50.3844 74.6917 50.3665C76.1709 50.0069 77.4948 49.1799 78.4667 48.0082C78.625 47.8165 78.9083 47.7915 79.0833 47.9665L80.9333 49.8165C81.5667 50.4498 81.3417 51.2415 80.7083 51.3915ZM65.25 51.3915L66.625 51.7165C66.9333 51.7915 67.175 52.0248 67.2417 52.3332L67.5333 53.5582C67.6917 54.2248 68.5417 54.4332 68.9833 53.9082L71.475 51.0415C71.675 50.8082 71.5667 50.4415 71.2667 50.3665C69.7874 50.0069 68.4636 49.1799 67.4917 48.0082C67.4557 47.9623 67.4105 47.9246 67.359 47.8973C67.3074 47.8701 67.2508 47.854 67.1926 47.8501C67.1345 47.8461 67.0762 47.8545 67.0214 47.8745C66.9667 47.8946 66.9168 47.9259 66.875 47.9665L65.025 49.8165C64.3917 50.4498 64.6167 51.2415 65.25 51.3915ZM73 37.6665C69.775 37.6665 67.1667 40.2748 67.1667 43.4998C67.1667 44.7082 67.525 45.8165 68.1417 46.7415C68.5936 47.4155 69.1813 47.9875 69.8673 48.4209C70.5533 48.8543 71.3223 49.1395 72.125 49.2582C72.4083 49.3082 72.7 49.3332 73 49.3332C73.3 49.3332 73.5917 49.3082 73.875 49.2582C75.5333 49.0165 76.9583 48.0748 77.8583 46.7415C78.4981 45.7818 78.8375 44.6532 78.8333 43.4998C78.8333 40.2748 76.225 37.6665 73 37.6665ZM75.55 43.3165L74.8583 44.0082C74.7417 44.1248 74.675 44.3498 74.7167 44.5165L74.9167 45.3748C75.075 46.0498 74.7167 46.3165 74.1167 45.9582L73.2833 45.4665C73.1987 45.4213 73.1043 45.3977 73.0083 45.3977C72.9124 45.3977 72.818 45.4213 72.7333 45.4665L71.9 45.9582C71.3 46.3082 70.9417 46.0498 71.1 45.3748L71.3 44.5165C71.3333 44.3582 71.275 44.1248 71.1583 44.0082L70.45 43.3165C70.0417 42.9082 70.175 42.4998 70.7417 42.4082L71.6333 42.2582C71.7833 42.2332 71.9583 42.0998 72.025 41.9665L72.5167 40.9832C72.7833 40.4498 73.2167 40.4498 73.4833 40.9832L73.975 41.9665C74.0417 42.0998 74.2167 42.2332 74.375 42.2582L75.2667 42.4082C75.825 42.4998 75.9583 42.9082 75.55 43.3165Z" fill="#AEAEAE"/>
<path d="M101.708 51.3915L100.333 51.7165C100.025 51.7915 99.7833 52.0248 99.7167 52.3332L99.425 53.5582C99.2667 54.2248 98.4167 54.4332 97.975 53.9082L95.4833 51.0415C95.437 50.9881 95.405 50.9238 95.3903 50.8546C95.3757 50.7854 95.379 50.7137 95.3999 50.6461C95.4207 50.5785 95.4585 50.5174 95.5095 50.4685C95.5606 50.4195 95.6233 50.3844 95.6917 50.3665C97.1709 50.0069 98.4948 49.1799 99.4667 48.0082C99.625 47.8165 99.9083 47.7915 100.083 47.9665L101.933 49.8165C102.567 50.4498 102.342 51.2415 101.708 51.3915ZM86.25 51.3915L87.625 51.7165C87.9333 51.7915 88.175 52.0248 88.2417 52.3332L88.5333 53.5582C88.6917 54.2248 89.5417 54.4332 89.9833 53.9082L92.475 51.0415C92.675 50.8082 92.5667 50.4415 92.2667 50.3665C90.7874 50.0069 89.4636 49.1799 88.4917 48.0082C88.4557 47.9623 88.4105 47.9246 88.359 47.8973C88.3074 47.8701 88.2508 47.854 88.1926 47.8501C88.1345 47.8461 88.0762 47.8545 88.0214 47.8745C87.9667 47.8946 87.9168 47.9259 87.875 47.9665L86.025 49.8165C85.3917 50.4498 85.6167 51.2415 86.25 51.3915ZM94 37.6665C90.775 37.6665 88.1667 40.2748 88.1667 43.4998C88.1667 44.7082 88.525 45.8165 89.1417 46.7415C89.5936 47.4155 90.1813 47.9875 90.8673 48.4209C91.5533 48.8543 92.3223 49.1395 93.125 49.2582C93.4083 49.3082 93.7 49.3332 94 49.3332C94.3 49.3332 94.5917 49.3082 94.875 49.2582C96.5333 49.0165 97.9583 48.0748 98.8583 46.7415C99.4981 45.7818 99.8375 44.6532 99.8333 43.4998C99.8333 40.2748 97.225 37.6665 94 37.6665ZM96.55 43.3165L95.8583 44.0082C95.7417 44.1248 95.675 44.3498 95.7167 44.5165L95.9167 45.3748C96.075 46.0498 95.7167 46.3165 95.1167 45.9582L94.2833 45.4665C94.1987 45.4213 94.1043 45.3977 94.0083 45.3977C93.9124 45.3977 93.818 45.4213 93.7333 45.4665L92.9 45.9582C92.3 46.3082 91.9417 46.0498 92.1 45.3748L92.3 44.5165C92.3333 44.3582 92.275 44.1248 92.1583 44.0082L91.45 43.3165C91.0417 42.9082 91.175 42.4998 91.7417 42.4082L92.6333 42.2582C92.7833 42.2332 92.9583 42.0998 93.025 41.9665L93.5167 40.9832C93.7833 40.4498 94.2167 40.4498 94.4833 40.9832L94.975 41.9665C95.0417 42.0998 95.2167 42.2332 95.375 42.2582L96.2667 42.4082C96.825 42.4998 96.9583 42.9082 96.55 43.3165Z" fill="#AEAEAE"/>
<path d="M122.708 51.3915L121.333 51.7165C121.025 51.7915 120.783 52.0248 120.717 52.3332L120.425 53.5582C120.267 54.2248 119.417 54.4332 118.975 53.9082L116.483 51.0415C116.437 50.9881 116.405 50.9238 116.39 50.8546C116.376 50.7854 116.379 50.7137 116.4 50.6461C116.421 50.5785 116.458 50.5174 116.51 50.4685C116.561 50.4195 116.623 50.3844 116.692 50.3665C118.171 50.0069 119.495 49.1799 120.467 48.0082C120.625 47.8165 120.908 47.7915 121.083 47.9665L122.933 49.8165C123.567 50.4498 123.342 51.2415 122.708 51.3915ZM107.25 51.3915L108.625 51.7165C108.933 51.7915 109.175 52.0248 109.242 52.3332L109.533 53.5582C109.692 54.2248 110.542 54.4332 110.983 53.9082L113.475 51.0415C113.675 50.8082 113.567 50.4415 113.267 50.3665C111.787 50.0069 110.464 49.1799 109.492 48.0082C109.456 47.9623 109.41 47.9246 109.359 47.8973C109.307 47.8701 109.251 47.854 109.193 47.8501C109.134 47.8461 109.076 47.8545 109.021 47.8745C108.967 47.8946 108.917 47.9259 108.875 47.9665L107.025 49.8165C106.392 50.4498 106.617 51.2415 107.25 51.3915ZM115 37.6665C111.775 37.6665 109.167 40.2748 109.167 43.4998C109.167 44.7082 109.525 45.8165 110.142 46.7415C110.594 47.4155 111.181 47.9875 111.867 48.4209C112.553 48.8543 113.322 49.1395 114.125 49.2582C114.408 49.3082 114.7 49.3332 115 49.3332C115.3 49.3332 115.592 49.3082 115.875 49.2582C117.533 49.0165 118.958 48.0748 119.858 46.7415C120.498 45.7818 120.838 44.6532 120.833 43.4998C120.833 40.2748 118.225 37.6665 115 37.6665ZM117.55 43.3165L116.858 44.0082C116.742 44.1248 116.675 44.3498 116.717 44.5165L116.917 45.3748C117.075 46.0498 116.717 46.3165 116.117 45.9582L115.283 45.4665C115.199 45.4213 115.104 45.3977 115.008 45.3977C114.912 45.3977 114.818 45.4213 114.733 45.4665L113.9 45.9582C113.3 46.3082 112.942 46.0498 113.1 45.3748L113.3 44.5165C113.333 44.3582 113.275 44.1248 113.158 44.0082L112.45 43.3165C112.042 42.9082 112.175 42.4998 112.742 42.4082L113.633 42.2582C113.783 42.2332 113.958 42.0998 114.025 41.9665L114.517 40.9832C114.783 40.4498 115.217 40.4498 115.483 40.9832L115.975 41.9665C116.042 42.0998 116.217 42.2332 116.375 42.2582L117.267 42.4082C117.825 42.4998 117.958 42.9082 117.55 43.3165Z" fill="#AEAEAE"/>
<path d="M49.5 149.875V147.625H45V145.375H46.125V144.25H47.25V143.125H48.375V142H51.75V146.5H52.875V147.625H51.75V149.875H49.5ZM47.25 146.5H49.5V144.25H48.375V145.375H47.25V146.5ZM54 149.875V147.625H55.125V146.5H56.25V145.375H58.5V144.25H59.625V143.125H56.25V144.25H54V143.125H55.125V142H60.75V143.125H61.875V145.375H60.75V146.5H59.625V147.625H57.375V148.75H61.875V149.875H54ZM75.375 143.125V142H77.625V143.125H75.375ZM73.125 149.875V148.75H75.375V145.375H74.25V144.25H77.625V148.75H79.875V149.875H73.125ZM81 149.875V144.25H87.75V145.375H88.875V149.875H86.625V145.375H83.25V149.875H81ZM100.125 149.875V148.75H99V147.625H101.25V148.75H104.625V146.5H100.125V145.375H99V143.125H100.125V142H105.75V143.125H106.875V144.25H104.625V143.125H101.25V145.375H105.75V146.5H106.875V148.75H105.75V149.875H100.125ZM109.125 149.875V148.75H108V145.375H109.125V144.25H115.875V145.375H110.25V148.75H115.875V149.875H109.125ZM118.125 149.875V148.75H117V145.375H118.125V144.25H123.75V145.375H124.875V148.75H123.75V149.875H118.125ZM119.25 148.75H122.625V145.375H119.25V148.75ZM129.375 145.375H130.5V146.5H129.375V149.875H127.125V144.25H129.375V145.375ZM133.875 144.25V145.375H130.5V144.25H133.875ZM136.125 149.875V148.75H135V145.375H136.125V144.25H141.75V145.375H142.875V147.625H137.25V148.75H141.75V149.875H136.125ZM137.25 146.5H140.625V145.375H137.25V146.5Z" fill="#AEAEAE"/>
<rect x="72" y="156" width="43" height="37" fill="#ECEFF1"/>
<path fill-rule="evenodd" clip-rule="evenodd" d="M158 156H115V189.742L158 162.701V156ZM118 193L115 191.8V193H118Z" fill="#FF3D00"/>
<path fill-rule="evenodd" clip-rule="evenodd" d="M72 156H29V163.043L72 186.226V156Z" fill="#3F51B5"/>
<mask id="path-8-outside-1_2436_3791" maskUnits="userSpaceOnUse" x="0" y="0" width="187" height="211" fill="black">
<rect fill="white" width="187" height="211"/>
<path fill-rule="evenodd" clip-rule="evenodd" d="M88.2676 6.18605L11.4366 50.4898C9.3024 51.2671 5.03401 54.9202 5.03401 63.3146V149.59C4.84 151.728 5.38324 156.586 9.10838 158.917C12.8335 161.249 63.4333 190.591 88.2676 204.97C90.2077 205.747 95.0194 206.835 98.7445 204.97C102.47 203.105 152.681 173.491 177.322 158.917C178.874 157.946 181.978 154.72 181.978 149.59V60.9828C182.172 58.651 181.163 53.2879 175.575 50.4898C169.988 47.6917 122.027 19.7881 98.7445 6.18605C96.8043 5.29103 91.9927 4.038 88.2676 6.18605ZM89 20L23 58C21.1666 58.6666 17.5 61.8 17.5 69V143C17.3333 144.833 17.8 149 21 151C24.2 153 67.6666 178.167 89 190.5C90.6666 191.167 94.8 192.1 98 190.5C101.2 188.9 144.333 163.5 165.5 151C166.833 150.167 169.5 147.4 169.5 143V67C169.667 65 168.8 60.4 164 58C159.2 55.6 118 31.6666 98 20C96.3333 19.2323 92.2 18.1575 89 20Z"/>
</mask>
<path fill-rule="evenodd" clip-rule="evenodd" d="M88.2676 6.18605L11.4366 50.4898C9.3024 51.2671 5.03401 54.9202 5.03401 63.3146V149.59C4.84 151.728 5.38324 156.586 9.10838 158.917C12.8335 161.249 63.4333 190.591 88.2676 204.97C90.2077 205.747 95.0194 206.835 98.7445 204.97C102.47 203.105 152.681 173.491 177.322 158.917C178.874 157.946 181.978 154.72 181.978 149.59V60.9828C182.172 58.651 181.163 53.2879 175.575 50.4898C169.988 47.6917 122.027 19.7881 98.7445 6.18605C96.8043 5.29103 91.9927 4.038 88.2676 6.18605ZM89 20L23 58C21.1666 58.6666 17.5 61.8 17.5 69V143C17.3333 144.833 17.8 149 21 151C24.2 153 67.6666 178.167 89 190.5C90.6666 191.167 94.8 192.1 98 190.5C101.2 188.9 144.333 163.5 165.5 151C166.833 150.167 169.5 147.4 169.5 143V67C169.667 65 168.8 60.4 164 58C159.2 55.6 118 31.6666 98 20C96.3333 19.2323 92.2 18.1575 89 20Z" fill="#AEAEAE"/>
<path d="M11.4366 50.4898L13.1476 55.1879L13.5569 55.0389L13.9343 54.8213L11.4366 50.4898ZM88.2676 6.18605L90.7653 10.5175V10.5175L88.2676 6.18605ZM5.03401 149.59L10.0135 150.042L10.034 149.817V149.59H5.03401ZM9.10838 158.917L6.45546 163.156H6.45547L9.10838 158.917ZM88.2676 204.97L85.7622 209.297L86.0739 209.477L86.4082 209.611L88.2676 204.97ZM98.7445 204.97L100.983 209.441H100.983L98.7445 204.97ZM177.322 158.917L179.867 163.221L179.921 163.189L179.975 163.156L177.322 158.917ZM181.978 60.9828L176.995 60.5682L176.978 60.7751V60.9828H181.978ZM175.575 50.4898L173.337 54.9606L175.575 50.4898ZM98.7445 6.18605L101.267 1.86884L101.058 1.74701L100.839 1.64585L98.7445 6.18605ZM23 58L24.7087 62.6989L25.1177 62.5502L25.4948 62.3331L23 58ZM89 20L86.5052 15.6668L86.5052 15.6668L89 20ZM17.5 143L22.4794 143.453L22.5 143.227V143H17.5ZM21 151L23.65 146.76H23.65L21 151ZM89 190.5L86.4975 194.829L86.8089 195.009L87.143 195.142L89 190.5ZM165.5 151L168.042 155.305L168.097 155.273L168.15 155.24L165.5 151ZM169.5 67L164.517 66.5847L164.5 66.792V67H169.5ZM98 20L100.519 15.6811L100.311 15.5595L100.092 15.4585L98 20ZM13.9343 54.8213L90.7653 10.5175L85.7699 1.85459L8.9389 46.1583L13.9343 54.8213ZM10.034 63.3146C10.034 56.7206 13.2569 55.1481 13.1476 55.1879L9.72557 45.7917C5.34787 47.386 0.0340128 53.1197 0.0340128 63.3146H10.034ZM10.034 149.59V63.3146H0.0340128V149.59H10.034ZM11.7613 154.679C11.1851 154.319 10.6932 153.669 10.3559 152.633C10.0074 151.563 9.97203 150.5 10.0135 150.042L0.0544844 149.138C-0.098021 150.818 0.0412183 153.253 0.847085 155.729C1.66427 158.239 3.3065 161.184 6.45546 163.156L11.7613 154.679ZM90.7729 200.643C65.8564 186.216 15.3895 156.95 11.7613 154.679L6.45547 163.156C10.2776 165.548 61.0102 194.965 85.7622 209.297L90.7729 200.643ZM96.5057 200.499C95.7278 200.889 94.5857 201.073 93.1917 200.974C91.8156 200.876 90.6341 200.532 90.1269 200.329L86.4082 209.611C87.8412 210.185 90.0357 210.774 92.4817 210.948C94.9099 211.121 98.0361 210.917 100.983 209.441L96.5057 200.499ZM174.776 154.614C149.968 169.287 100.023 198.738 96.5057 200.499L100.983 209.441C104.916 207.471 155.394 177.695 179.867 163.221L174.776 154.614ZM176.978 149.59C176.978 151.107 176.527 152.297 175.979 153.184C175.7 153.635 175.4 154 175.135 154.27C175.003 154.404 174.888 154.507 174.799 154.58C174.707 154.656 174.66 154.685 174.669 154.679L179.975 163.156C182.664 161.472 186.978 156.793 186.978 149.59H176.978ZM176.978 60.9828V149.59H186.978V60.9828H176.978ZM173.337 54.9606C176.591 56.5903 177.072 59.6425 176.995 60.5682L186.961 61.3974C187.272 57.6595 185.735 49.9855 177.814 46.019L173.337 54.9606ZM96.2223 10.5033C119.365 24.0241 167.558 52.067 173.337 54.9606L177.814 46.019C172.417 43.3164 124.688 15.5521 101.267 1.86884L96.2223 10.5033ZM90.7653 10.5175C91.4569 10.1187 92.4721 9.92207 93.767 10.0282C95.0609 10.1342 96.1803 10.5095 96.6501 10.7263L100.839 1.64585C99.3686 0.967552 97.112 0.268815 94.5838 0.0616069C92.0565 -0.145528 88.8033 0.105391 85.7699 1.85459L90.7653 10.5175ZM25.4948 62.3331L91.4948 24.3331L86.5052 15.6668L20.5052 53.6668L25.4948 62.3331ZM22.5 69C22.5 63.6051 25.1169 62.5505 24.7087 62.6989L21.2913 53.301C17.2164 54.7828 12.5 59.9948 12.5 69H22.5ZM22.5 143V69H12.5V143H22.5ZM23.65 146.76C23.3365 146.564 22.9962 146.17 22.7412 145.388C22.4747 144.57 22.4518 143.757 22.4794 143.453L12.5205 142.547C12.3815 144.076 12.5086 146.263 13.2338 148.487C13.9704 150.747 15.4634 153.436 18.35 155.24L23.65 146.76ZM91.5025 186.171C70.0869 173.79 26.753 148.699 23.65 146.76L18.35 155.24C21.6469 157.301 65.2464 182.543 86.4975 194.829L91.5025 186.171ZM95.7639 186.028C95.2476 186.286 94.405 186.443 93.2794 186.363C92.1719 186.284 91.2278 186.006 90.857 185.858L87.143 195.142C88.4388 195.661 90.3947 196.183 92.5706 196.337C94.7283 196.491 97.5524 196.314 100.236 194.972L95.7639 186.028ZM162.957 146.695C141.623 159.294 98.7565 184.532 95.7639 186.028L100.236 194.972C103.644 193.268 147.043 167.706 168.042 155.305L162.957 146.695ZM164.5 143C164.5 144.15 164.16 145.042 163.749 145.705C163.294 146.439 162.828 146.774 162.85 146.76L168.15 155.24C170.619 153.697 174.5 149.476 174.5 143H164.5ZM164.5 67V143H174.5V67H164.5ZM161.764 62.4721C163.053 63.1164 163.714 63.9789 164.084 64.7699C164.28 65.189 164.399 65.6023 164.463 65.9593C164.494 66.1359 164.509 66.2866 164.515 66.4031C164.522 66.523 164.517 66.5848 164.517 66.5847L174.483 67.4152C174.767 64.0048 173.369 57.0943 166.236 53.5278L161.764 62.4721ZM95.4806 24.3189C115.342 35.9045 156.773 59.9768 161.764 62.4721L166.236 53.5278C161.627 51.2231 120.658 27.4288 100.519 15.6811L95.4806 24.3189ZM91.4948 24.3331C91.9248 24.0855 92.6406 23.9205 93.6672 24.0045C94.6927 24.0884 95.5748 24.3878 95.9082 24.5414L100.092 15.4585C98.7585 14.8444 96.7406 14.2226 94.4828 14.0378C92.2261 13.8532 89.2752 14.072 86.5052 15.6668L91.4948 24.3331Z" fill="white" mask="url(#path-8-outside-1_2436_3791)"/>
</svg>
